# Mirrored across local XZ from j6_output_flange.obj; derived visualization mesh.
# X330 flange schematic, mm; simplified central hole.
v 8 0 -1.5
v 7.98287138591 -0.523225033841 -1.5
v 7.93155889099 -1.04420953776 -1.5
v 7.84628224323 -1.56072257613 -1.5
v 7.72740661031 -2.07055236082 -1.5
v 7.57544103596 -2.57151572243 -1.5
v 7.39103626009 -3.06146745892 -1.5
v 7.17498193226 -3.53830952175 -1.5
v 6.92820323028 -4 -1.5
v 6.65175689842 -4.44456186416 -1.5
v 6.34682672233 -4.87009143207 -1.5
v 6.01471845983 -5.2747665208 -1.5
v 5.65685424949 -5.65685424949 -1.5
v 5.2747665208 -6.01471845983 -1.5
v 4.87009143207 -6.34682672233 -1.5
v 4.44456186416 -6.65175689842 -1.5
v 4 -6.92820323028 -1.5
v 3.53830952175 -7.17498193226 -1.5
v 3.06146745892 -7.39103626009 -1.5
v 2.57151572243 -7.57544103596 -1.5
v 2.07055236082 -7.72740661031 -1.5
v 1.56072257613 -7.84628224323 -1.5
v 1.04420953776 -7.93155889099 -1.5
v 0.523225033841 -7.98287138591 -1.5
v 0 -8 -1.5
v -0.523225033841 -7.98287138591 -1.5
v -1.04420953776 -7.93155889099 -1.5
v -1.56072257613 -7.84628224323 -1.5
v -2.07055236082 -7.72740661031 -1.5
v -2.57151572243 -7.57544103596 -1.5
v -3.06146745892 -7.39103626009 -1.5
v -3.53830952175 -7.17498193226 -1.5
v -4 -6.92820323028 -1.5
v -4.44456186416 -6.65175689842 -1.5
v -4.87009143207 -6.34682672233 -1.5
v -5.2747665208 -6.01471845983 -1.5
v -5.65685424949 -5.65685424949 -1.5
v -6.01471845983 -5.2747665208 -1.5
v -6.34682672233 -4.87009143207 -1.5
v -6.65175689842 -4.44456186416 -1.5
v -6.92820323028 -4 -1.5
v -7.17498193226 -3.53830952175 -1.5
v -7.39103626009 -3.06146745892 -1.5
v -7.57544103596 -2.57151572243 -1.5
v -7.72740661031 -2.07055236082 -1.5
v -7.84628224323 -1.56072257613 -1.5
v -7.93155889099 -1.04420953776 -1.5
v -7.98287138591 -0.523225033841 -1.5
v -8 0 -1.5
v -7.98287138591 0.523225033841 -1.5
v -7.93155889099 1.04420953776 -1.5
v -7.84628224323 1.56072257613 -1.5
v -7.72740661031 2.07055236082 -1.5
v -7.57544103596 2.57151572243 -1.5
v -7.39103626009 3.06146745892 -1.5
v -7.17498193226 3.53830952175 -1.5
v -6.92820323028 4 -1.5
v -6.65175689842 4.44456186416 -1.5
v -6.34682672233 4.87009143207 -1.5
v -6.01471845983 5.2747665208 -1.5
v -5.65685424949 5.65685424949 -1.5
v -5.2747665208 6.01471845983 -1.5
v -4.87009143207 6.34682672233 -1.5
v -4.44456186416 6.65175689842 -1.5
v -4 6.92820323028 -1.5
v -3.53830952175 7.17498193226 -1.5
v -3.06146745892 7.39103626009 -1.5
v -2.57151572243 7.57544103596 -1.5
v -2.07055236082 7.72740661031 -1.5
v -1.56072257613 7.84628224323 -1.5
v -1.04420953776 7.93155889099 -1.5
v -0.523225033841 7.98287138591 -1.5
v 0 8 -1.5
v 0.523225033841 7.98287138591 -1.5
v 1.04420953776 7.93155889099 -1.5
v 1.56072257613 7.84628224323 -1.5
v 2.07055236082 7.72740661031 -1.5
v 2.57151572243 7.57544103596 -1.5
v 3.06146745892 7.39103626009 -1.5
v 3.53830952175 7.17498193226 -1.5
v 4 6.92820323028 -1.5
v 4.44456186416 6.65175689842 -1.5
v 4.87009143207 6.34682672233 -1.5
v 5.2747665208 6.01471845983 -1.5
v 5.65685424949 5.65685424949 -1.5
v 6.01471845983 5.2747665208 -1.5
v 6.34682672233 4.87009143207 -1.5
v 6.65175689842 4.44456186416 -1.5
v 6.92820323028 4 -1.5
v 7.17498193226 3.53830952175 -1.5
v 7.39103626009 3.06146745892 -1.5
v 7.57544103596 2.57151572243 -1.5
v 7.72740661031 2.07055236082 -1.5
v 7.84628224323 1.56072257613 -1.5
v 7.93155889099 1.04420953776 -1.5
v 7.98287138591 0.523225033841 -1.5
v 8 0 1.5
v 7.98287138591 -0.523225033841 1.5
v 7.93155889099 -1.04420953776 1.5
v 7.84628224323 -1.56072257613 1.5
v 7.72740661031 -2.07055236082 1.5
v 7.57544103596 -2.57151572243 1.5
v 7.39103626009 -3.06146745892 1.5
v 7.17498193226 -3.53830952175 1.5
v 6.92820323028 -4 1.5
v 6.65175689842 -4.44456186416 1.5
v 6.34682672233 -4.87009143207 1.5
v 6.01471845983 -5.2747665208 1.5
v 5.65685424949 -5.65685424949 1.5
v 5.2747665208 -6.01471845983 1.5
v 4.87009143207 -6.34682672233 1.5
v 4.44456186416 -6.65175689842 1.5
v 4 -6.92820323028 1.5
v 3.53830952175 -7.17498193226 1.5
v 3.06146745892 -7.39103626009 1.5
v 2.57151572243 -7.57544103596 1.5
v 2.07055236082 -7.72740661031 1.5
v 1.56072257613 -7.84628224323 1.5
v 1.04420953776 -7.93155889099 1.5
v 0.523225033841 -7.98287138591 1.5
v 0 -8 1.5
v -0.523225033841 -7.98287138591 1.5
v -1.04420953776 -7.93155889099 1.5
v -1.56072257613 -7.84628224323 1.5
v -2.07055236082 -7.72740661031 1.5
v -2.57151572243 -7.57544103596 1.5
v -3.06146745892 -7.39103626009 1.5
v -3.53830952175 -7.17498193226 1.5
v -4 -6.92820323028 1.5
v -4.44456186416 -6.65175689842 1.5
v -4.87009143207 -6.34682672233 1.5
v -5.2747665208 -6.01471845983 1.5
v -5.65685424949 -5.65685424949 1.5
v -6.01471845983 -5.2747665208 1.5
v -6.34682672233 -4.87009143207 1.5
v -6.65175689842 -4.44456186416 1.5
v -6.92820323028 -4 1.5
v -7.17498193226 -3.53830952175 1.5
v -7.39103626009 -3.06146745892 1.5
v -7.57544103596 -2.57151572243 1.5
v -7.72740661031 -2.07055236082 1.5
v -7.84628224323 -1.56072257613 1.5
v -7.93155889099 -1.04420953776 1.5
v -7.98287138591 -0.523225033841 1.5
v -8 0 1.5
v -7.98287138591 0.523225033841 1.5
v -7.93155889099 1.04420953776 1.5
v -7.84628224323 1.56072257613 1.5
v -7.72740661031 2.07055236082 1.5
v -7.57544103596 2.57151572243 1.5
v -7.39103626009 3.06146745892 1.5
v -7.17498193226 3.53830952175 1.5
v -6.92820323028 4 1.5
v -6.65175689842 4.44456186416 1.5
v -6.34682672233 4.87009143207 1.5
v -6.01471845983 5.2747665208 1.5
v -5.65685424949 5.65685424949 1.5
v -5.2747665208 6.01471845983 1.5
v -4.87009143207 6.34682672233 1.5
v -4.44456186416 6.65175689842 1.5
v -4 6.92820323028 1.5
v -3.53830952175 7.17498193226 1.5
v -3.06146745892 7.39103626009 1.5
v -2.57151572243 7.57544103596 1.5
v -2.07055236082 7.72740661031 1.5
v -1.56072257613 7.84628224323 1.5
v -1.04420953776 7.93155889099 1.5
v -0.523225033841 7.98287138591 1.5
v 0 8 1.5
v 0.523225033841 7.98287138591 1.5
v 1.04420953776 7.93155889099 1.5
v 1.56072257613 7.84628224323 1.5
v 2.07055236082 7.72740661031 1.5
v 2.57151572243 7.57544103596 1.5
v 3.06146745892 7.39103626009 1.5
v 3.53830952175 7.17498193226 1.5
v 4 6.92820323028 1.5
v 4.44456186416 6.65175689842 1.5
v 4.87009143207 6.34682672233 1.5
v 5.2747665208 6.01471845983 1.5
v 5.65685424949 5.65685424949 1.5
v 6.01471845983 5.2747665208 1.5
v 6.34682672233 4.87009143207 1.5
v 6.65175689842 4.44456186416 1.5
v 6.92820323028 4 1.5
v 7.17498193226 3.53830952175 1.5
v 7.39103626009 3.06146745892 1.5
v 7.57544103596 2.57151572243 1.5
v 7.72740661031 2.07055236082 1.5
v 7.84628224323 1.56072257613 1.5
v 7.93155889099 1.04420953776 1.5
v 7.98287138591 0.523225033841 1.5
v 2 0 -1.5
v 1.99571784648 -0.13080625846 -1.5
v 1.98288972275 -0.26105238444 -1.5
v 1.96157056081 -0.390180644032 -1.5
v 1.93185165258 -0.517638090205 -1.5
v 1.89386025899 -0.642878930606 -1.5
v 1.84775906502 -0.76536686473 -1.5
v 1.79374548307 -0.884577380438 -1.5
v 1.73205080757 -1 -1.5
v 1.66293922461 -1.11114046604 -1.5
v 1.58670668058 -1.21752285802 -1.5
v 1.50367961496 -1.3186916302 -1.5
v 1.41421356237 -1.41421356237 -1.5
v 1.3186916302 -1.50367961496 -1.5
v 1.21752285802 -1.58670668058 -1.5
v 1.11114046604 -1.66293922461 -1.5
v 1 -1.73205080757 -1.5
v 0.884577380438 -1.79374548307 -1.5
v 0.76536686473 -1.84775906502 -1.5
v 0.642878930606 -1.89386025899 -1.5
v 0.517638090205 -1.93185165258 -1.5
v 0.390180644032 -1.96157056081 -1.5
v 0.26105238444 -1.98288972275 -1.5
v 0.13080625846 -1.99571784648 -1.5
v 0 -2 -1.5
v -0.13080625846 -1.99571784648 -1.5
v -0.26105238444 -1.98288972275 -1.5
v -0.390180644032 -1.96157056081 -1.5
v -0.517638090205 -1.93185165258 -1.5
v -0.642878930606 -1.89386025899 -1.5
v -0.76536686473 -1.84775906502 -1.5
v -0.884577380438 -1.79374548307 -1.5
v -1 -1.73205080757 -1.5
v -1.11114046604 -1.66293922461 -1.5
v -1.21752285802 -1.58670668058 -1.5
v -1.3186916302 -1.50367961496 -1.5
v -1.41421356237 -1.41421356237 -1.5
v -1.50367961496 -1.3186916302 -1.5
v -1.58670668058 -1.21752285802 -1.5
v -1.66293922461 -1.11114046604 -1.5
v -1.73205080757 -1 -1.5
v -1.79374548307 -0.884577380438 -1.5
v -1.84775906502 -0.76536686473 -1.5
v -1.89386025899 -0.642878930606 -1.5
v -1.93185165258 -0.517638090205 -1.5
v -1.96157056081 -0.390180644032 -1.5
v -1.98288972275 -0.26105238444 -1.5
v -1.99571784648 -0.13080625846 -1.5
v -2 0 -1.5
v -1.99571784648 0.13080625846 -1.5
v -1.98288972275 0.26105238444 -1.5
v -1.96157056081 0.390180644032 -1.5
v -1.93185165258 0.517638090205 -1.5
v -1.89386025899 0.642878930606 -1.5
v -1.84775906502 0.76536686473 -1.5
v -1.79374548307 0.884577380438 -1.5
v -1.73205080757 1 -1.5
v -1.66293922461 1.11114046604 -1.5
v -1.58670668058 1.21752285802 -1.5
v -1.50367961496 1.3186916302 -1.5
v -1.41421356237 1.41421356237 -1.5
v -1.3186916302 1.50367961496 -1.5
v -1.21752285802 1.58670668058 -1.5
v -1.11114046604 1.66293922461 -1.5
v -1 1.73205080757 -1.5
v -0.884577380438 1.79374548307 -1.5
v -0.76536686473 1.84775906502 -1.5
v -0.642878930606 1.89386025899 -1.5
v -0.517638090205 1.93185165258 -1.5
v -0.390180644032 1.96157056081 -1.5
v -0.26105238444 1.98288972275 -1.5
v -0.13080625846 1.99571784648 -1.5
v 0 2 -1.5
v 0.13080625846 1.99571784648 -1.5
v 0.26105238444 1.98288972275 -1.5
v 0.390180644032 1.96157056081 -1.5
v 0.517638090205 1.93185165258 -1.5
v 0.642878930606 1.89386025899 -1.5
v 0.76536686473 1.84775906502 -1.5
v 0.884577380438 1.79374548307 -1.5
v 1 1.73205080757 -1.5
v 1.11114046604 1.66293922461 -1.5
v 1.21752285802 1.58670668058 -1.5
v 1.3186916302 1.50367961496 -1.5
v 1.41421356237 1.41421356237 -1.5
v 1.50367961496 1.3186916302 -1.5
v 1.58670668058 1.21752285802 -1.5
v 1.66293922461 1.11114046604 -1.5
v 1.73205080757 1 -1.5
v 1.79374548307 0.884577380438 -1.5
v 1.84775906502 0.76536686473 -1.5
v 1.89386025899 0.642878930606 -1.5
v 1.93185165258 0.517638090205 -1.5
v 1.96157056081 0.390180644032 -1.5
v 1.98288972275 0.26105238444 -1.5
v 1.99571784648 0.13080625846 -1.5
v 2 0 1.5
v 1.99571784648 -0.13080625846 1.5
v 1.98288972275 -0.26105238444 1.5
v 1.96157056081 -0.390180644032 1.5
v 1.93185165258 -0.517638090205 1.5
v 1.89386025899 -0.642878930606 1.5
v 1.84775906502 -0.76536686473 1.5
v 1.79374548307 -0.884577380438 1.5
v 1.73205080757 -1 1.5
v 1.66293922461 -1.11114046604 1.5
v 1.58670668058 -1.21752285802 1.5
v 1.50367961496 -1.3186916302 1.5
v 1.41421356237 -1.41421356237 1.5
v 1.3186916302 -1.50367961496 1.5
v 1.21752285802 -1.58670668058 1.5
v 1.11114046604 -1.66293922461 1.5
v 1 -1.73205080757 1.5
v 0.884577380438 -1.79374548307 1.5
v 0.76536686473 -1.84775906502 1.5
v 0.642878930606 -1.89386025899 1.5
v 0.517638090205 -1.93185165258 1.5
v 0.390180644032 -1.96157056081 1.5
v 0.26105238444 -1.98288972275 1.5
v 0.13080625846 -1.99571784648 1.5
v 0 -2 1.5
v -0.13080625846 -1.99571784648 1.5
v -0.26105238444 -1.98288972275 1.5
v -0.390180644032 -1.96157056081 1.5
v -0.517638090205 -1.93185165258 1.5
v -0.642878930606 -1.89386025899 1.5
v -0.76536686473 -1.84775906502 1.5
v -0.884577380438 -1.79374548307 1.5
v -1 -1.73205080757 1.5
v -1.11114046604 -1.66293922461 1.5
v -1.21752285802 -1.58670668058 1.5
v -1.3186916302 -1.50367961496 1.5
v -1.41421356237 -1.41421356237 1.5
v -1.50367961496 -1.3186916302 1.5
v -1.58670668058 -1.21752285802 1.5
v -1.66293922461 -1.11114046604 1.5
v -1.73205080757 -1 1.5
v -1.79374548307 -0.884577380438 1.5
v -1.84775906502 -0.76536686473 1.5
v -1.89386025899 -0.642878930606 1.5
v -1.93185165258 -0.517638090205 1.5
v -1.96157056081 -0.390180644032 1.5
v -1.98288972275 -0.26105238444 1.5
v -1.99571784648 -0.13080625846 1.5
v -2 0 1.5
v -1.99571784648 0.13080625846 1.5
v -1.98288972275 0.26105238444 1.5
v -1.96157056081 0.390180644032 1.5
v -1.93185165258 0.517638090205 1.5
v -1.89386025899 0.642878930606 1.5
v -1.84775906502 0.76536686473 1.5
v -1.79374548307 0.884577380438 1.5
v -1.73205080757 1 1.5
v -1.66293922461 1.11114046604 1.5
v -1.58670668058 1.21752285802 1.5
v -1.50367961496 1.3186916302 1.5
v -1.41421356237 1.41421356237 1.5
v -1.3186916302 1.50367961496 1.5
v -1.21752285802 1.58670668058 1.5
v -1.11114046604 1.66293922461 1.5
v -1 1.73205080757 1.5
v -0.884577380438 1.79374548307 1.5
v -0.76536686473 1.84775906502 1.5
v -0.642878930606 1.89386025899 1.5
v -0.517638090205 1.93185165258 1.5
v -0.390180644032 1.96157056081 1.5
v -0.26105238444 1.98288972275 1.5
v -0.13080625846 1.99571784648 1.5
v 0 2 1.5
v 0.13080625846 1.99571784648 1.5
v 0.26105238444 1.98288972275 1.5
v 0.390180644032 1.96157056081 1.5
v 0.517638090205 1.93185165258 1.5
v 0.642878930606 1.89386025899 1.5
v 0.76536686473 1.84775906502 1.5
v 0.884577380438 1.79374548307 1.5
v 1 1.73205080757 1.5
v 1.11114046604 1.66293922461 1.5
v 1.21752285802 1.58670668058 1.5
v 1.3186916302 1.50367961496 1.5
v 1.41421356237 1.41421356237 1.5
v 1.50367961496 1.3186916302 1.5
v 1.58670668058 1.21752285802 1.5
v 1.66293922461 1.11114046604 1.5
v 1.73205080757 1 1.5
v 1.79374548307 0.884577380438 1.5
v 1.84775906502 0.76536686473 1.5
v 1.89386025899 0.642878930606 1.5
v 1.93185165258 0.517638090205 1.5
v 1.96157056081 0.390180644032 1.5
v 1.98288972275 0.26105238444 1.5
v 1.99571784648 0.13080625846 1.5
f 98 2 1
f 97 98 1
f 290 289 193
f 194 290 193
f 194 193 1
f 2 194 1
f 290 98 97
f 289 290 97
f 99 3 2
f 98 99 2
f 291 290 194
f 195 291 194
f 195 194 2
f 3 195 2
f 291 99 98
f 290 291 98
f 100 4 3
f 99 100 3
f 292 291 195
f 196 292 195
f 196 195 3
f 4 196 3
f 292 100 99
f 291 292 99
f 101 5 4
f 100 101 4
f 293 292 196
f 197 293 196
f 197 196 4
f 5 197 4
f 293 101 100
f 292 293 100
f 102 6 5
f 101 102 5
f 294 293 197
f 198 294 197
f 198 197 5
f 6 198 5
f 294 102 101
f 293 294 101
f 103 7 6
f 102 103 6
f 295 294 198
f 199 295 198
f 199 198 6
f 7 199 6
f 295 103 102
f 294 295 102
f 104 8 7
f 103 104 7
f 296 295 199
f 200 296 199
f 200 199 7
f 8 200 7
f 296 104 103
f 295 296 103
f 105 9 8
f 104 105 8
f 297 296 200
f 201 297 200
f 201 200 8
f 9 201 8
f 297 105 104
f 296 297 104
f 106 10 9
f 105 106 9
f 298 297 201
f 202 298 201
f 202 201 9
f 10 202 9
f 298 106 105
f 297 298 105
f 107 11 10
f 106 107 10
f 299 298 202
f 203 299 202
f 203 202 10
f 11 203 10
f 299 107 106
f 298 299 106
f 108 12 11
f 107 108 11
f 300 299 203
f 204 300 203
f 204 203 11
f 12 204 11
f 300 108 107
f 299 300 107
f 109 13 12
f 108 109 12
f 301 300 204
f 205 301 204
f 205 204 12
f 13 205 12
f 301 109 108
f 300 301 108
f 110 14 13
f 109 110 13
f 302 301 205
f 206 302 205
f 206 205 13
f 14 206 13
f 302 110 109
f 301 302 109
f 111 15 14
f 110 111 14
f 303 302 206
f 207 303 206
f 207 206 14
f 15 207 14
f 303 111 110
f 302 303 110
f 112 16 15
f 111 112 15
f 304 303 207
f 208 304 207
f 208 207 15
f 16 208 15
f 304 112 111
f 303 304 111
f 113 17 16
f 112 113 16
f 305 304 208
f 209 305 208
f 209 208 16
f 17 209 16
f 305 113 112
f 304 305 112
f 114 18 17
f 113 114 17
f 306 305 209
f 210 306 209
f 210 209 17
f 18 210 17
f 306 114 113
f 305 306 113
f 115 19 18
f 114 115 18
f 307 306 210
f 211 307 210
f 211 210 18
f 19 211 18
f 307 115 114
f 306 307 114
f 116 20 19
f 115 116 19
f 308 307 211
f 212 308 211
f 212 211 19
f 20 212 19
f 308 116 115
f 307 308 115
f 117 21 20
f 116 117 20
f 309 308 212
f 213 309 212
f 213 212 20
f 21 213 20
f 309 117 116
f 308 309 116
f 118 22 21
f 117 118 21
f 310 309 213
f 214 310 213
f 214 213 21
f 22 214 21
f 310 118 117
f 309 310 117
f 119 23 22
f 118 119 22
f 311 310 214
f 215 311 214
f 215 214 22
f 23 215 22
f 311 119 118
f 310 311 118
f 120 24 23
f 119 120 23
f 312 311 215
f 216 312 215
f 216 215 23
f 24 216 23
f 312 120 119
f 311 312 119
f 121 25 24
f 120 121 24
f 313 312 216
f 217 313 216
f 217 216 24
f 25 217 24
f 313 121 120
f 312 313 120
f 122 26 25
f 121 122 25
f 314 313 217
f 218 314 217
f 218 217 25
f 26 218 25
f 314 122 121
f 313 314 121
f 123 27 26
f 122 123 26
f 315 314 218
f 219 315 218
f 219 218 26
f 27 219 26
f 315 123 122
f 314 315 122
f 124 28 27
f 123 124 27
f 316 315 219
f 220 316 219
f 220 219 27
f 28 220 27
f 316 124 123
f 315 316 123
f 125 29 28
f 124 125 28
f 317 316 220
f 221 317 220
f 221 220 28
f 29 221 28
f 317 125 124
f 316 317 124
f 126 30 29
f 125 126 29
f 318 317 221
f 222 318 221
f 222 221 29
f 30 222 29
f 318 126 125
f 317 318 125
f 127 31 30
f 126 127 30
f 319 318 222
f 223 319 222
f 223 222 30
f 31 223 30
f 319 127 126
f 318 319 126
f 128 32 31
f 127 128 31
f 320 319 223
f 224 320 223
f 224 223 31
f 32 224 31
f 320 128 127
f 319 320 127
f 129 33 32
f 128 129 32
f 321 320 224
f 225 321 224
f 225 224 32
f 33 225 32
f 321 129 128
f 320 321 128
f 130 34 33
f 129 130 33
f 322 321 225
f 226 322 225
f 226 225 33
f 34 226 33
f 322 130 129
f 321 322 129
f 131 35 34
f 130 131 34
f 323 322 226
f 227 323 226
f 227 226 34
f 35 227 34
f 323 131 130
f 322 323 130
f 132 36 35
f 131 132 35
f 324 323 227
f 228 324 227
f 228 227 35
f 36 228 35
f 324 132 131
f 323 324 131
f 133 37 36
f 132 133 36
f 325 324 228
f 229 325 228
f 229 228 36
f 37 229 36
f 325 133 132
f 324 325 132
f 134 38 37
f 133 134 37
f 326 325 229
f 230 326 229
f 230 229 37
f 38 230 37
f 326 134 133
f 325 326 133
f 135 39 38
f 134 135 38
f 327 326 230
f 231 327 230
f 231 230 38
f 39 231 38
f 327 135 134
f 326 327 134
f 136 40 39
f 135 136 39
f 328 327 231
f 232 328 231
f 232 231 39
f 40 232 39
f 328 136 135
f 327 328 135
f 137 41 40
f 136 137 40
f 329 328 232
f 233 329 232
f 233 232 40
f 41 233 40
f 329 137 136
f 328 329 136
f 138 42 41
f 137 138 41
f 330 329 233
f 234 330 233
f 234 233 41
f 42 234 41
f 330 138 137
f 329 330 137
f 139 43 42
f 138 139 42
f 331 330 234
f 235 331 234
f 235 234 42
f 43 235 42
f 331 139 138
f 330 331 138
f 140 44 43
f 139 140 43
f 332 331 235
f 236 332 235
f 236 235 43
f 44 236 43
f 332 140 139
f 331 332 139
f 141 45 44
f 140 141 44
f 333 332 236
f 237 333 236
f 237 236 44
f 45 237 44
f 333 141 140
f 332 333 140
f 142 46 45
f 141 142 45
f 334 333 237
f 238 334 237
f 238 237 45
f 46 238 45
f 334 142 141
f 333 334 141
f 143 47 46
f 142 143 46
f 335 334 238
f 239 335 238
f 239 238 46
f 47 239 46
f 335 143 142
f 334 335 142
f 144 48 47
f 143 144 47
f 336 335 239
f 240 336 239
f 240 239 47
f 48 240 47
f 336 144 143
f 335 336 143
f 145 49 48
f 144 145 48
f 337 336 240
f 241 337 240
f 241 240 48
f 49 241 48
f 337 145 144
f 336 337 144
f 146 50 49
f 145 146 49
f 338 337 241
f 242 338 241
f 242 241 49
f 50 242 49
f 338 146 145
f 337 338 145
f 147 51 50
f 146 147 50
f 339 338 242
f 243 339 242
f 243 242 50
f 51 243 50
f 339 147 146
f 338 339 146
f 148 52 51
f 147 148 51
f 340 339 243
f 244 340 243
f 244 243 51
f 52 244 51
f 340 148 147
f 339 340 147
f 149 53 52
f 148 149 52
f 341 340 244
f 245 341 244
f 245 244 52
f 53 245 52
f 341 149 148
f 340 341 148
f 150 54 53
f 149 150 53
f 342 341 245
f 246 342 245
f 246 245 53
f 54 246 53
f 342 150 149
f 341 342 149
f 151 55 54
f 150 151 54
f 343 342 246
f 247 343 246
f 247 246 54
f 55 247 54
f 343 151 150
f 342 343 150
f 152 56 55
f 151 152 55
f 344 343 247
f 248 344 247
f 248 247 55
f 56 248 55
f 344 152 151
f 343 344 151
f 153 57 56
f 152 153 56
f 345 344 248
f 249 345 248
f 249 248 56
f 57 249 56
f 345 153 152
f 344 345 152
f 154 58 57
f 153 154 57
f 346 345 249
f 250 346 249
f 250 249 57
f 58 250 57
f 346 154 153
f 345 346 153
f 155 59 58
f 154 155 58
f 347 346 250
f 251 347 250
f 251 250 58
f 59 251 58
f 347 155 154
f 346 347 154
f 156 60 59
f 155 156 59
f 348 347 251
f 252 348 251
f 252 251 59
f 60 252 59
f 348 156 155
f 347 348 155
f 157 61 60
f 156 157 60
f 349 348 252
f 253 349 252
f 253 252 60
f 61 253 60
f 349 157 156
f 348 349 156
f 158 62 61
f 157 158 61
f 350 349 253
f 254 350 253
f 254 253 61
f 62 254 61
f 350 158 157
f 349 350 157
f 159 63 62
f 158 159 62
f 351 350 254
f 255 351 254
f 255 254 62
f 63 255 62
f 351 159 158
f 350 351 158
f 160 64 63
f 159 160 63
f 352 351 255
f 256 352 255
f 256 255 63
f 64 256 63
f 352 160 159
f 351 352 159
f 161 65 64
f 160 161 64
f 353 352 256
f 257 353 256
f 257 256 64
f 65 257 64
f 353 161 160
f 352 353 160
f 162 66 65
f 161 162 65
f 354 353 257
f 258 354 257
f 258 257 65
f 66 258 65
f 354 162 161
f 353 354 161
f 163 67 66
f 162 163 66
f 355 354 258
f 259 355 258
f 259 258 66
f 67 259 66
f 355 163 162
f 354 355 162
f 164 68 67
f 163 164 67
f 356 355 259
f 260 356 259
f 260 259 67
f 68 260 67
f 356 164 163
f 355 356 163
f 165 69 68
f 164 165 68
f 357 356 260
f 261 357 260
f 261 260 68
f 69 261 68
f 357 165 164
f 356 357 164
f 166 70 69
f 165 166 69
f 358 357 261
f 262 358 261
f 262 261 69
f 70 262 69
f 358 166 165
f 357 358 165
f 167 71 70
f 166 167 70
f 359 358 262
f 263 359 262
f 263 262 70
f 71 263 70
f 359 167 166
f 358 359 166
f 168 72 71
f 167 168 71
f 360 359 263
f 264 360 263
f 264 263 71
f 72 264 71
f 360 168 167
f 359 360 167
f 169 73 72
f 168 169 72
f 361 360 264
f 265 361 264
f 265 264 72
f 73 265 72
f 361 169 168
f 360 361 168
f 170 74 73
f 169 170 73
f 362 361 265
f 266 362 265
f 266 265 73
f 74 266 73
f 362 170 169
f 361 362 169
f 171 75 74
f 170 171 74
f 363 362 266
f 267 363 266
f 267 266 74
f 75 267 74
f 363 171 170
f 362 363 170
f 172 76 75
f 171 172 75
f 364 363 267
f 268 364 267
f 268 267 75
f 76 268 75
f 364 172 171
f 363 364 171
f 173 77 76
f 172 173 76
f 365 364 268
f 269 365 268
f 269 268 76
f 77 269 76
f 365 173 172
f 364 365 172
f 174 78 77
f 173 174 77
f 366 365 269
f 270 366 269
f 270 269 77
f 78 270 77
f 366 174 173
f 365 366 173
f 175 79 78
f 174 175 78
f 367 366 270
f 271 367 270
f 271 270 78
f 79 271 78
f 367 175 174
f 366 367 174
f 176 80 79
f 175 176 79
f 368 367 271
f 272 368 271
f 272 271 79
f 80 272 79
f 368 176 175
f 367 368 175
f 177 81 80
f 176 177 80
f 369 368 272
f 273 369 272
f 273 272 80
f 81 273 80
f 369 177 176
f 368 369 176
f 178 82 81
f 177 178 81
f 370 369 273
f 274 370 273
f 274 273 81
f 82 274 81
f 370 178 177
f 369 370 177
f 179 83 82
f 178 179 82
f 371 370 274
f 275 371 274
f 275 274 82
f 83 275 82
f 371 179 178
f 370 371 178
f 180 84 83
f 179 180 83
f 372 371 275
f 276 372 275
f 276 275 83
f 84 276 83
f 372 180 179
f 371 372 179
f 181 85 84
f 180 181 84
f 373 372 276
f 277 373 276
f 277 276 84
f 85 277 84
f 373 181 180
f 372 373 180
f 182 86 85
f 181 182 85
f 374 373 277
f 278 374 277
f 278 277 85
f 86 278 85
f 374 182 181
f 373 374 181
f 183 87 86
f 182 183 86
f 375 374 278
f 279 375 278
f 279 278 86
f 87 279 86
f 375 183 182
f 374 375 182
f 184 88 87
f 183 184 87
f 376 375 279
f 280 376 279
f 280 279 87
f 88 280 87
f 376 184 183
f 375 376 183
f 185 89 88
f 184 185 88
f 377 376 280
f 281 377 280
f 281 280 88
f 89 281 88
f 377 185 184
f 376 377 184
f 186 90 89
f 185 186 89
f 378 377 281
f 282 378 281
f 282 281 89
f 90 282 89
f 378 186 185
f 377 378 185
f 187 91 90
f 186 187 90
f 379 378 282
f 283 379 282
f 283 282 90
f 91 283 90
f 379 187 186
f 378 379 186
f 188 92 91
f 187 188 91
f 380 379 283
f 284 380 283
f 284 283 91
f 92 284 91
f 380 188 187
f 379 380 187
f 189 93 92
f 188 189 92
f 381 380 284
f 285 381 284
f 285 284 92
f 93 285 92
f 381 189 188
f 380 381 188
f 190 94 93
f 189 190 93
f 382 381 285
f 286 382 285
f 286 285 93
f 94 286 93
f 382 190 189
f 381 382 189
f 191 95 94
f 190 191 94
f 383 382 286
f 287 383 286
f 287 286 94
f 95 287 94
f 383 191 190
f 382 383 190
f 192 96 95
f 191 192 95
f 384 383 287
f 288 384 287
f 288 287 95
f 96 288 95
f 384 192 191
f 383 384 191
f 97 1 96
f 192 97 96
f 289 384 288
f 193 289 288
f 193 288 96
f 1 193 96
f 289 97 192
f 384 289 192
