# X330 flange schematic, mm; simplified central hole.
v 8 0 -1.5
v 7.98287138591 0.523225033841 -1.5
v 7.93155889099 1.04420953776 -1.5
v 7.84628224323 1.56072257613 -1.5
v 7.72740661031 2.07055236082 -1.5
v 7.57544103596 2.57151572243 -1.5
v 7.39103626009 3.06146745892 -1.5
v 7.17498193226 3.53830952175 -1.5
v 6.92820323028 4 -1.5
v 6.65175689842 4.44456186416 -1.5
v 6.34682672233 4.87009143207 -1.5
v 6.01471845983 5.2747665208 -1.5
v 5.65685424949 5.65685424949 -1.5
v 5.2747665208 6.01471845983 -1.5
v 4.87009143207 6.34682672233 -1.5
v 4.44456186416 6.65175689842 -1.5
v 4 6.92820323028 -1.5
v 3.53830952175 7.17498193226 -1.5
v 3.06146745892 7.39103626009 -1.5
v 2.57151572243 7.57544103596 -1.5
v 2.07055236082 7.72740661031 -1.5
v 1.56072257613 7.84628224323 -1.5
v 1.04420953776 7.93155889099 -1.5
v 0.523225033841 7.98287138591 -1.5
v 4.89858719659e-16 8 -1.5
v -0.523225033841 7.98287138591 -1.5
v -1.04420953776 7.93155889099 -1.5
v -1.56072257613 7.84628224323 -1.5
v -2.07055236082 7.72740661031 -1.5
v -2.57151572243 7.57544103596 -1.5
v -3.06146745892 7.39103626009 -1.5
v -3.53830952175 7.17498193226 -1.5
v -4 6.92820323028 -1.5
v -4.44456186416 6.65175689842 -1.5
v -4.87009143207 6.34682672233 -1.5
v -5.2747665208 6.01471845983 -1.5
v -5.65685424949 5.65685424949 -1.5
v -6.01471845983 5.2747665208 -1.5
v -6.34682672233 4.87009143207 -1.5
v -6.65175689842 4.44456186416 -1.5
v -6.92820323028 4 -1.5
v -7.17498193226 3.53830952175 -1.5
v -7.39103626009 3.06146745892 -1.5
v -7.57544103596 2.57151572243 -1.5
v -7.72740661031 2.07055236082 -1.5
v -7.84628224323 1.56072257613 -1.5
v -7.93155889099 1.04420953776 -1.5
v -7.98287138591 0.523225033841 -1.5
v -8 9.79717439318e-16 -1.5
v -7.98287138591 -0.523225033841 -1.5
v -7.93155889099 -1.04420953776 -1.5
v -7.84628224323 -1.56072257613 -1.5
v -7.72740661031 -2.07055236082 -1.5
v -7.57544103596 -2.57151572243 -1.5
v -7.39103626009 -3.06146745892 -1.5
v -7.17498193226 -3.53830952175 -1.5
v -6.92820323028 -4 -1.5
v -6.65175689842 -4.44456186416 -1.5
v -6.34682672233 -4.87009143207 -1.5
v -6.01471845983 -5.2747665208 -1.5
v -5.65685424949 -5.65685424949 -1.5
v -5.2747665208 -6.01471845983 -1.5
v -4.87009143207 -6.34682672233 -1.5
v -4.44456186416 -6.65175689842 -1.5
v -4 -6.92820323028 -1.5
v -3.53830952175 -7.17498193226 -1.5
v -3.06146745892 -7.39103626009 -1.5
v -2.57151572243 -7.57544103596 -1.5
v -2.07055236082 -7.72740661031 -1.5
v -1.56072257613 -7.84628224323 -1.5
v -1.04420953776 -7.93155889099 -1.5
v -0.523225033841 -7.98287138591 -1.5
v -1.46957615898e-15 -8 -1.5
v 0.523225033841 -7.98287138591 -1.5
v 1.04420953776 -7.93155889099 -1.5
v 1.56072257613 -7.84628224323 -1.5
v 2.07055236082 -7.72740661031 -1.5
v 2.57151572243 -7.57544103596 -1.5
v 3.06146745892 -7.39103626009 -1.5
v 3.53830952175 -7.17498193226 -1.5
v 4 -6.92820323028 -1.5
v 4.44456186416 -6.65175689842 -1.5
v 4.87009143207 -6.34682672233 -1.5
v 5.2747665208 -6.01471845983 -1.5
v 5.65685424949 -5.65685424949 -1.5
v 6.01471845983 -5.2747665208 -1.5
v 6.34682672233 -4.87009143207 -1.5
v 6.65175689842 -4.44456186416 -1.5
v 6.92820323028 -4 -1.5
v 7.17498193226 -3.53830952175 -1.5
v 7.39103626009 -3.06146745892 -1.5
v 7.57544103596 -2.57151572243 -1.5
v 7.72740661031 -2.07055236082 -1.5
v 7.84628224323 -1.56072257613 -1.5
v 7.93155889099 -1.04420953776 -1.5
v 7.98287138591 -0.523225033841 -1.5
v 8 0 1.5
v 7.98287138591 0.523225033841 1.5
v 7.93155889099 1.04420953776 1.5
v 7.84628224323 1.56072257613 1.5
v 7.72740661031 2.07055236082 1.5
v 7.57544103596 2.57151572243 1.5
v 7.39103626009 3.06146745892 1.5
v 7.17498193226 3.53830952175 1.5
v 6.92820323028 4 1.5
v 6.65175689842 4.44456186416 1.5
v 6.34682672233 4.87009143207 1.5
v 6.01471845983 5.2747665208 1.5
v 5.65685424949 5.65685424949 1.5
v 5.2747665208 6.01471845983 1.5
v 4.87009143207 6.34682672233 1.5
v 4.44456186416 6.65175689842 1.5
v 4 6.92820323028 1.5
v 3.53830952175 7.17498193226 1.5
v 3.06146745892 7.39103626009 1.5
v 2.57151572243 7.57544103596 1.5
v 2.07055236082 7.72740661031 1.5
v 1.56072257613 7.84628224323 1.5
v 1.04420953776 7.93155889099 1.5
v 0.523225033841 7.98287138591 1.5
v 4.89858719659e-16 8 1.5
v -0.523225033841 7.98287138591 1.5
v -1.04420953776 7.93155889099 1.5
v -1.56072257613 7.84628224323 1.5
v -2.07055236082 7.72740661031 1.5
v -2.57151572243 7.57544103596 1.5
v -3.06146745892 7.39103626009 1.5
v -3.53830952175 7.17498193226 1.5
v -4 6.92820323028 1.5
v -4.44456186416 6.65175689842 1.5
v -4.87009143207 6.34682672233 1.5
v -5.2747665208 6.01471845983 1.5
v -5.65685424949 5.65685424949 1.5
v -6.01471845983 5.2747665208 1.5
v -6.34682672233 4.87009143207 1.5
v -6.65175689842 4.44456186416 1.5
v -6.92820323028 4 1.5
v -7.17498193226 3.53830952175 1.5
v -7.39103626009 3.06146745892 1.5
v -7.57544103596 2.57151572243 1.5
v -7.72740661031 2.07055236082 1.5
v -7.84628224323 1.56072257613 1.5
v -7.93155889099 1.04420953776 1.5
v -7.98287138591 0.523225033841 1.5
v -8 9.79717439318e-16 1.5
v -7.98287138591 -0.523225033841 1.5
v -7.93155889099 -1.04420953776 1.5
v -7.84628224323 -1.56072257613 1.5
v -7.72740661031 -2.07055236082 1.5
v -7.57544103596 -2.57151572243 1.5
v -7.39103626009 -3.06146745892 1.5
v -7.17498193226 -3.53830952175 1.5
v -6.92820323028 -4 1.5
v -6.65175689842 -4.44456186416 1.5
v -6.34682672233 -4.87009143207 1.5
v -6.01471845983 -5.2747665208 1.5
v -5.65685424949 -5.65685424949 1.5
v -5.2747665208 -6.01471845983 1.5
v -4.87009143207 -6.34682672233 1.5
v -4.44456186416 -6.65175689842 1.5
v -4 -6.92820323028 1.5
v -3.53830952175 -7.17498193226 1.5
v -3.06146745892 -7.39103626009 1.5
v -2.57151572243 -7.57544103596 1.5
v -2.07055236082 -7.72740661031 1.5
v -1.56072257613 -7.84628224323 1.5
v -1.04420953776 -7.93155889099 1.5
v -0.523225033841 -7.98287138591 1.5
v -1.46957615898e-15 -8 1.5
v 0.523225033841 -7.98287138591 1.5
v 1.04420953776 -7.93155889099 1.5
v 1.56072257613 -7.84628224323 1.5
v 2.07055236082 -7.72740661031 1.5
v 2.57151572243 -7.57544103596 1.5
v 3.06146745892 -7.39103626009 1.5
v 3.53830952175 -7.17498193226 1.5
v 4 -6.92820323028 1.5
v 4.44456186416 -6.65175689842 1.5
v 4.87009143207 -6.34682672233 1.5
v 5.2747665208 -6.01471845983 1.5
v 5.65685424949 -5.65685424949 1.5
v 6.01471845983 -5.2747665208 1.5
v 6.34682672233 -4.87009143207 1.5
v 6.65175689842 -4.44456186416 1.5
v 6.92820323028 -4 1.5
v 7.17498193226 -3.53830952175 1.5
v 7.39103626009 -3.06146745892 1.5
v 7.57544103596 -2.57151572243 1.5
v 7.72740661031 -2.07055236082 1.5
v 7.84628224323 -1.56072257613 1.5
v 7.93155889099 -1.04420953776 1.5
v 7.98287138591 -0.523225033841 1.5
v 2 0 -1.5
v 1.99571784648 0.13080625846 -1.5
v 1.98288972275 0.26105238444 -1.5
v 1.96157056081 0.390180644032 -1.5
v 1.93185165258 0.517638090205 -1.5
v 1.89386025899 0.642878930606 -1.5
v 1.84775906502 0.76536686473 -1.5
v 1.79374548307 0.884577380438 -1.5
v 1.73205080757 1 -1.5
v 1.66293922461 1.11114046604 -1.5
v 1.58670668058 1.21752285802 -1.5
v 1.50367961496 1.3186916302 -1.5
v 1.41421356237 1.41421356237 -1.5
v 1.3186916302 1.50367961496 -1.5
v 1.21752285802 1.58670668058 -1.5
v 1.11114046604 1.66293922461 -1.5
v 1 1.73205080757 -1.5
v 0.884577380438 1.79374548307 -1.5
v 0.76536686473 1.84775906502 -1.5
v 0.642878930606 1.89386025899 -1.5
v 0.517638090205 1.93185165258 -1.5
v 0.390180644032 1.96157056081 -1.5
v 0.26105238444 1.98288972275 -1.5
v 0.13080625846 1.99571784648 -1.5
v 1.22464679915e-16 2 -1.5
v -0.13080625846 1.99571784648 -1.5
v -0.26105238444 1.98288972275 -1.5
v -0.390180644032 1.96157056081 -1.5
v -0.517638090205 1.93185165258 -1.5
v -0.642878930606 1.89386025899 -1.5
v -0.76536686473 1.84775906502 -1.5
v -0.884577380438 1.79374548307 -1.5
v -1 1.73205080757 -1.5
v -1.11114046604 1.66293922461 -1.5
v -1.21752285802 1.58670668058 -1.5
v -1.3186916302 1.50367961496 -1.5
v -1.41421356237 1.41421356237 -1.5
v -1.50367961496 1.3186916302 -1.5
v -1.58670668058 1.21752285802 -1.5
v -1.66293922461 1.11114046604 -1.5
v -1.73205080757 1 -1.5
v -1.79374548307 0.884577380438 -1.5
v -1.84775906502 0.76536686473 -1.5
v -1.89386025899 0.642878930606 -1.5
v -1.93185165258 0.517638090205 -1.5
v -1.96157056081 0.390180644032 -1.5
v -1.98288972275 0.26105238444 -1.5
v -1.99571784648 0.13080625846 -1.5
v -2 2.44929359829e-16 -1.5
v -1.99571784648 -0.13080625846 -1.5
v -1.98288972275 -0.26105238444 -1.5
v -1.96157056081 -0.390180644032 -1.5
v -1.93185165258 -0.517638090205 -1.5
v -1.89386025899 -0.642878930606 -1.5
v -1.84775906502 -0.76536686473 -1.5
v -1.79374548307 -0.884577380438 -1.5
v -1.73205080757 -1 -1.5
v -1.66293922461 -1.11114046604 -1.5
v -1.58670668058 -1.21752285802 -1.5
v -1.50367961496 -1.3186916302 -1.5
v -1.41421356237 -1.41421356237 -1.5
v -1.3186916302 -1.50367961496 -1.5
v -1.21752285802 -1.58670668058 -1.5
v -1.11114046604 -1.66293922461 -1.5
v -1 -1.73205080757 -1.5
v -0.884577380438 -1.79374548307 -1.5
v -0.76536686473 -1.84775906502 -1.5
v -0.642878930606 -1.89386025899 -1.5
v -0.517638090205 -1.93185165258 -1.5
v -0.390180644032 -1.96157056081 -1.5
v -0.26105238444 -1.98288972275 -1.5
v -0.13080625846 -1.99571784648 -1.5
v -3.67394039744e-16 -2 -1.5
v 0.13080625846 -1.99571784648 -1.5
v 0.26105238444 -1.98288972275 -1.5
v 0.390180644032 -1.96157056081 -1.5
v 0.517638090205 -1.93185165258 -1.5
v 0.642878930606 -1.89386025899 -1.5
v 0.76536686473 -1.84775906502 -1.5
v 0.884577380438 -1.79374548307 -1.5
v 1 -1.73205080757 -1.5
v 1.11114046604 -1.66293922461 -1.5
v 1.21752285802 -1.58670668058 -1.5
v 1.3186916302 -1.50367961496 -1.5
v 1.41421356237 -1.41421356237 -1.5
v 1.50367961496 -1.3186916302 -1.5
v 1.58670668058 -1.21752285802 -1.5
v 1.66293922461 -1.11114046604 -1.5
v 1.73205080757 -1 -1.5
v 1.79374548307 -0.884577380438 -1.5
v 1.84775906502 -0.76536686473 -1.5
v 1.89386025899 -0.642878930606 -1.5
v 1.93185165258 -0.517638090205 -1.5
v 1.96157056081 -0.390180644032 -1.5
v 1.98288972275 -0.26105238444 -1.5
v 1.99571784648 -0.13080625846 -1.5
v 2 0 1.5
v 1.99571784648 0.13080625846 1.5
v 1.98288972275 0.26105238444 1.5
v 1.96157056081 0.390180644032 1.5
v 1.93185165258 0.517638090205 1.5
v 1.89386025899 0.642878930606 1.5
v 1.84775906502 0.76536686473 1.5
v 1.79374548307 0.884577380438 1.5
v 1.73205080757 1 1.5
v 1.66293922461 1.11114046604 1.5
v 1.58670668058 1.21752285802 1.5
v 1.50367961496 1.3186916302 1.5
v 1.41421356237 1.41421356237 1.5
v 1.3186916302 1.50367961496 1.5
v 1.21752285802 1.58670668058 1.5
v 1.11114046604 1.66293922461 1.5
v 1 1.73205080757 1.5
v 0.884577380438 1.79374548307 1.5
v 0.76536686473 1.84775906502 1.5
v 0.642878930606 1.89386025899 1.5
v 0.517638090205 1.93185165258 1.5
v 0.390180644032 1.96157056081 1.5
v 0.26105238444 1.98288972275 1.5
v 0.13080625846 1.99571784648 1.5
v 1.22464679915e-16 2 1.5
v -0.13080625846 1.99571784648 1.5
v -0.26105238444 1.98288972275 1.5
v -0.390180644032 1.96157056081 1.5
v -0.517638090205 1.93185165258 1.5
v -0.642878930606 1.89386025899 1.5
v -0.76536686473 1.84775906502 1.5
v -0.884577380438 1.79374548307 1.5
v -1 1.73205080757 1.5
v -1.11114046604 1.66293922461 1.5
v -1.21752285802 1.58670668058 1.5
v -1.3186916302 1.50367961496 1.5
v -1.41421356237 1.41421356237 1.5
v -1.50367961496 1.3186916302 1.5
v -1.58670668058 1.21752285802 1.5
v -1.66293922461 1.11114046604 1.5
v -1.73205080757 1 1.5
v -1.79374548307 0.884577380438 1.5
v -1.84775906502 0.76536686473 1.5
v -1.89386025899 0.642878930606 1.5
v -1.93185165258 0.517638090205 1.5
v -1.96157056081 0.390180644032 1.5
v -1.98288972275 0.26105238444 1.5
v -1.99571784648 0.13080625846 1.5
v -2 2.44929359829e-16 1.5
v -1.99571784648 -0.13080625846 1.5
v -1.98288972275 -0.26105238444 1.5
v -1.96157056081 -0.390180644032 1.5
v -1.93185165258 -0.517638090205 1.5
v -1.89386025899 -0.642878930606 1.5
v -1.84775906502 -0.76536686473 1.5
v -1.79374548307 -0.884577380438 1.5
v -1.73205080757 -1 1.5
v -1.66293922461 -1.11114046604 1.5
v -1.58670668058 -1.21752285802 1.5
v -1.50367961496 -1.3186916302 1.5
v -1.41421356237 -1.41421356237 1.5
v -1.3186916302 -1.50367961496 1.5
v -1.21752285802 -1.58670668058 1.5
v -1.11114046604 -1.66293922461 1.5
v -1 -1.73205080757 1.5
v -0.884577380438 -1.79374548307 1.5
v -0.76536686473 -1.84775906502 1.5
v -0.642878930606 -1.89386025899 1.5
v -0.517638090205 -1.93185165258 1.5
v -0.390180644032 -1.96157056081 1.5
v -0.26105238444 -1.98288972275 1.5
v -0.13080625846 -1.99571784648 1.5
v -3.67394039744e-16 -2 1.5
v 0.13080625846 -1.99571784648 1.5
v 0.26105238444 -1.98288972275 1.5
v 0.390180644032 -1.96157056081 1.5
v 0.517638090205 -1.93185165258 1.5
v 0.642878930606 -1.89386025899 1.5
v 0.76536686473 -1.84775906502 1.5
v 0.884577380438 -1.79374548307 1.5
v 1 -1.73205080757 1.5
v 1.11114046604 -1.66293922461 1.5
v 1.21752285802 -1.58670668058 1.5
v 1.3186916302 -1.50367961496 1.5
v 1.41421356237 -1.41421356237 1.5
v 1.50367961496 -1.3186916302 1.5
v 1.58670668058 -1.21752285802 1.5
v 1.66293922461 -1.11114046604 1.5
v 1.73205080757 -1 1.5
v 1.79374548307 -0.884577380438 1.5
v 1.84775906502 -0.76536686473 1.5
v 1.89386025899 -0.642878930606 1.5
v 1.93185165258 -0.517638090205 1.5
v 1.96157056081 -0.390180644032 1.5
v 1.98288972275 -0.26105238444 1.5
v 1.99571784648 -0.13080625846 1.5
f 1 2 98
f 1 98 97
f 193 289 290
f 193 290 194
f 1 193 194
f 1 194 2
f 97 98 290
f 97 290 289
f 2 3 99
f 2 99 98
f 194 290 291
f 194 291 195
f 2 194 195
f 2 195 3
f 98 99 291
f 98 291 290
f 3 4 100
f 3 100 99
f 195 291 292
f 195 292 196
f 3 195 196
f 3 196 4
f 99 100 292
f 99 292 291
f 4 5 101
f 4 101 100
f 196 292 293
f 196 293 197
f 4 196 197
f 4 197 5
f 100 101 293
f 100 293 292
f 5 6 102
f 5 102 101
f 197 293 294
f 197 294 198
f 5 197 198
f 5 198 6
f 101 102 294
f 101 294 293
f 6 7 103
f 6 103 102
f 198 294 295
f 198 295 199
f 6 198 199
f 6 199 7
f 102 103 295
f 102 295 294
f 7 8 104
f 7 104 103
f 199 295 296
f 199 296 200
f 7 199 200
f 7 200 8
f 103 104 296
f 103 296 295
f 8 9 105
f 8 105 104
f 200 296 297
f 200 297 201
f 8 200 201
f 8 201 9
f 104 105 297
f 104 297 296
f 9 10 106
f 9 106 105
f 201 297 298
f 201 298 202
f 9 201 202
f 9 202 10
f 105 106 298
f 105 298 297
f 10 11 107
f 10 107 106
f 202 298 299
f 202 299 203
f 10 202 203
f 10 203 11
f 106 107 299
f 106 299 298
f 11 12 108
f 11 108 107
f 203 299 300
f 203 300 204
f 11 203 204
f 11 204 12
f 107 108 300
f 107 300 299
f 12 13 109
f 12 109 108
f 204 300 301
f 204 301 205
f 12 204 205
f 12 205 13
f 108 109 301
f 108 301 300
f 13 14 110
f 13 110 109
f 205 301 302
f 205 302 206
f 13 205 206
f 13 206 14
f 109 110 302
f 109 302 301
f 14 15 111
f 14 111 110
f 206 302 303
f 206 303 207
f 14 206 207
f 14 207 15
f 110 111 303
f 110 303 302
f 15 16 112
f 15 112 111
f 207 303 304
f 207 304 208
f 15 207 208
f 15 208 16
f 111 112 304
f 111 304 303
f 16 17 113
f 16 113 112
f 208 304 305
f 208 305 209
f 16 208 209
f 16 209 17
f 112 113 305
f 112 305 304
f 17 18 114
f 17 114 113
f 209 305 306
f 209 306 210
f 17 209 210
f 17 210 18
f 113 114 306
f 113 306 305
f 18 19 115
f 18 115 114
f 210 306 307
f 210 307 211
f 18 210 211
f 18 211 19
f 114 115 307
f 114 307 306
f 19 20 116
f 19 116 115
f 211 307 308
f 211 308 212
f 19 211 212
f 19 212 20
f 115 116 308
f 115 308 307
f 20 21 117
f 20 117 116
f 212 308 309
f 212 309 213
f 20 212 213
f 20 213 21
f 116 117 309
f 116 309 308
f 21 22 118
f 21 118 117
f 213 309 310
f 213 310 214
f 21 213 214
f 21 214 22
f 117 118 310
f 117 310 309
f 22 23 119
f 22 119 118
f 214 310 311
f 214 311 215
f 22 214 215
f 22 215 23
f 118 119 311
f 118 311 310
f 23 24 120
f 23 120 119
f 215 311 312
f 215 312 216
f 23 215 216
f 23 216 24
f 119 120 312
f 119 312 311
f 24 25 121
f 24 121 120
f 216 312 313
f 216 313 217
f 24 216 217
f 24 217 25
f 120 121 313
f 120 313 312
f 25 26 122
f 25 122 121
f 217 313 314
f 217 314 218
f 25 217 218
f 25 218 26
f 121 122 314
f 121 314 313
f 26 27 123
f 26 123 122
f 218 314 315
f 218 315 219
f 26 218 219
f 26 219 27
f 122 123 315
f 122 315 314
f 27 28 124
f 27 124 123
f 219 315 316
f 219 316 220
f 27 219 220
f 27 220 28
f 123 124 316
f 123 316 315
f 28 29 125
f 28 125 124
f 220 316 317
f 220 317 221
f 28 220 221
f 28 221 29
f 124 125 317
f 124 317 316
f 29 30 126
f 29 126 125
f 221 317 318
f 221 318 222
f 29 221 222
f 29 222 30
f 125 126 318
f 125 318 317
f 30 31 127
f 30 127 126
f 222 318 319
f 222 319 223
f 30 222 223
f 30 223 31
f 126 127 319
f 126 319 318
f 31 32 128
f 31 128 127
f 223 319 320
f 223 320 224
f 31 223 224
f 31 224 32
f 127 128 320
f 127 320 319
f 32 33 129
f 32 129 128
f 224 320 321
f 224 321 225
f 32 224 225
f 32 225 33
f 128 129 321
f 128 321 320
f 33 34 130
f 33 130 129
f 225 321 322
f 225 322 226
f 33 225 226
f 33 226 34
f 129 130 322
f 129 322 321
f 34 35 131
f 34 131 130
f 226 322 323
f 226 323 227
f 34 226 227
f 34 227 35
f 130 131 323
f 130 323 322
f 35 36 132
f 35 132 131
f 227 323 324
f 227 324 228
f 35 227 228
f 35 228 36
f 131 132 324
f 131 324 323
f 36 37 133
f 36 133 132
f 228 324 325
f 228 325 229
f 36 228 229
f 36 229 37
f 132 133 325
f 132 325 324
f 37 38 134
f 37 134 133
f 229 325 326
f 229 326 230
f 37 229 230
f 37 230 38
f 133 134 326
f 133 326 325
f 38 39 135
f 38 135 134
f 230 326 327
f 230 327 231
f 38 230 231
f 38 231 39
f 134 135 327
f 134 327 326
f 39 40 136
f 39 136 135
f 231 327 328
f 231 328 232
f 39 231 232
f 39 232 40
f 135 136 328
f 135 328 327
f 40 41 137
f 40 137 136
f 232 328 329
f 232 329 233
f 40 232 233
f 40 233 41
f 136 137 329
f 136 329 328
f 41 42 138
f 41 138 137
f 233 329 330
f 233 330 234
f 41 233 234
f 41 234 42
f 137 138 330
f 137 330 329
f 42 43 139
f 42 139 138
f 234 330 331
f 234 331 235
f 42 234 235
f 42 235 43
f 138 139 331
f 138 331 330
f 43 44 140
f 43 140 139
f 235 331 332
f 235 332 236
f 43 235 236
f 43 236 44
f 139 140 332
f 139 332 331
f 44 45 141
f 44 141 140
f 236 332 333
f 236 333 237
f 44 236 237
f 44 237 45
f 140 141 333
f 140 333 332
f 45 46 142
f 45 142 141
f 237 333 334
f 237 334 238
f 45 237 238
f 45 238 46
f 141 142 334
f 141 334 333
f 46 47 143
f 46 143 142
f 238 334 335
f 238 335 239
f 46 238 239
f 46 239 47
f 142 143 335
f 142 335 334
f 47 48 144
f 47 144 143
f 239 335 336
f 239 336 240
f 47 239 240
f 47 240 48
f 143 144 336
f 143 336 335
f 48 49 145
f 48 145 144
f 240 336 337
f 240 337 241
f 48 240 241
f 48 241 49
f 144 145 337
f 144 337 336
f 49 50 146
f 49 146 145
f 241 337 338
f 241 338 242
f 49 241 242
f 49 242 50
f 145 146 338
f 145 338 337
f 50 51 147
f 50 147 146
f 242 338 339
f 242 339 243
f 50 242 243
f 50 243 51
f 146 147 339
f 146 339 338
f 51 52 148
f 51 148 147
f 243 339 340
f 243 340 244
f 51 243 244
f 51 244 52
f 147 148 340
f 147 340 339
f 52 53 149
f 52 149 148
f 244 340 341
f 244 341 245
f 52 244 245
f 52 245 53
f 148 149 341
f 148 341 340
f 53 54 150
f 53 150 149
f 245 341 342
f 245 342 246
f 53 245 246
f 53 246 54
f 149 150 342
f 149 342 341
f 54 55 151
f 54 151 150
f 246 342 343
f 246 343 247
f 54 246 247
f 54 247 55
f 150 151 343
f 150 343 342
f 55 56 152
f 55 152 151
f 247 343 344
f 247 344 248
f 55 247 248
f 55 248 56
f 151 152 344
f 151 344 343
f 56 57 153
f 56 153 152
f 248 344 345
f 248 345 249
f 56 248 249
f 56 249 57
f 152 153 345
f 152 345 344
f 57 58 154
f 57 154 153
f 249 345 346
f 249 346 250
f 57 249 250
f 57 250 58
f 153 154 346
f 153 346 345
f 58 59 155
f 58 155 154
f 250 346 347
f 250 347 251
f 58 250 251
f 58 251 59
f 154 155 347
f 154 347 346
f 59 60 156
f 59 156 155
f 251 347 348
f 251 348 252
f 59 251 252
f 59 252 60
f 155 156 348
f 155 348 347
f 60 61 157
f 60 157 156
f 252 348 349
f 252 349 253
f 60 252 253
f 60 253 61
f 156 157 349
f 156 349 348
f 61 62 158
f 61 158 157
f 253 349 350
f 253 350 254
f 61 253 254
f 61 254 62
f 157 158 350
f 157 350 349
f 62 63 159
f 62 159 158
f 254 350 351
f 254 351 255
f 62 254 255
f 62 255 63
f 158 159 351
f 158 351 350
f 63 64 160
f 63 160 159
f 255 351 352
f 255 352 256
f 63 255 256
f 63 256 64
f 159 160 352
f 159 352 351
f 64 65 161
f 64 161 160
f 256 352 353
f 256 353 257
f 64 256 257
f 64 257 65
f 160 161 353
f 160 353 352
f 65 66 162
f 65 162 161
f 257 353 354
f 257 354 258
f 65 257 258
f 65 258 66
f 161 162 354
f 161 354 353
f 66 67 163
f 66 163 162
f 258 354 355
f 258 355 259
f 66 258 259
f 66 259 67
f 162 163 355
f 162 355 354
f 67 68 164
f 67 164 163
f 259 355 356
f 259 356 260
f 67 259 260
f 67 260 68
f 163 164 356
f 163 356 355
f 68 69 165
f 68 165 164
f 260 356 357
f 260 357 261
f 68 260 261
f 68 261 69
f 164 165 357
f 164 357 356
f 69 70 166
f 69 166 165
f 261 357 358
f 261 358 262
f 69 261 262
f 69 262 70
f 165 166 358
f 165 358 357
f 70 71 167
f 70 167 166
f 262 358 359
f 262 359 263
f 70 262 263
f 70 263 71
f 166 167 359
f 166 359 358
f 71 72 168
f 71 168 167
f 263 359 360
f 263 360 264
f 71 263 264
f 71 264 72
f 167 168 360
f 167 360 359
f 72 73 169
f 72 169 168
f 264 360 361
f 264 361 265
f 72 264 265
f 72 265 73
f 168 169 361
f 168 361 360
f 73 74 170
f 73 170 169
f 265 361 362
f 265 362 266
f 73 265 266
f 73 266 74
f 169 170 362
f 169 362 361
f 74 75 171
f 74 171 170
f 266 362 363
f 266 363 267
f 74 266 267
f 74 267 75
f 170 171 363
f 170 363 362
f 75 76 172
f 75 172 171
f 267 363 364
f 267 364 268
f 75 267 268
f 75 268 76
f 171 172 364
f 171 364 363
f 76 77 173
f 76 173 172
f 268 364 365
f 268 365 269
f 76 268 269
f 76 269 77
f 172 173 365
f 172 365 364
f 77 78 174
f 77 174 173
f 269 365 366
f 269 366 270
f 77 269 270
f 77 270 78
f 173 174 366
f 173 366 365
f 78 79 175
f 78 175 174
f 270 366 367
f 270 367 271
f 78 270 271
f 78 271 79
f 174 175 367
f 174 367 366
f 79 80 176
f 79 176 175
f 271 367 368
f 271 368 272
f 79 271 272
f 79 272 80
f 175 176 368
f 175 368 367
f 80 81 177
f 80 177 176
f 272 368 369
f 272 369 273
f 80 272 273
f 80 273 81
f 176 177 369
f 176 369 368
f 81 82 178
f 81 178 177
f 273 369 370
f 273 370 274
f 81 273 274
f 81 274 82
f 177 178 370
f 177 370 369
f 82 83 179
f 82 179 178
f 274 370 371
f 274 371 275
f 82 274 275
f 82 275 83
f 178 179 371
f 178 371 370
f 83 84 180
f 83 180 179
f 275 371 372
f 275 372 276
f 83 275 276
f 83 276 84
f 179 180 372
f 179 372 371
f 84 85 181
f 84 181 180
f 276 372 373
f 276 373 277
f 84 276 277
f 84 277 85
f 180 181 373
f 180 373 372
f 85 86 182
f 85 182 181
f 277 373 374
f 277 374 278
f 85 277 278
f 85 278 86
f 181 182 374
f 181 374 373
f 86 87 183
f 86 183 182
f 278 374 375
f 278 375 279
f 86 278 279
f 86 279 87
f 182 183 375
f 182 375 374
f 87 88 184
f 87 184 183
f 279 375 376
f 279 376 280
f 87 279 280
f 87 280 88
f 183 184 376
f 183 376 375
f 88 89 185
f 88 185 184
f 280 376 377
f 280 377 281
f 88 280 281
f 88 281 89
f 184 185 377
f 184 377 376
f 89 90 186
f 89 186 185
f 281 377 378
f 281 378 282
f 89 281 282
f 89 282 90
f 185 186 378
f 185 378 377
f 90 91 187
f 90 187 186
f 282 378 379
f 282 379 283
f 90 282 283
f 90 283 91
f 186 187 379
f 186 379 378
f 91 92 188
f 91 188 187
f 283 379 380
f 283 380 284
f 91 283 284
f 91 284 92
f 187 188 380
f 187 380 379
f 92 93 189
f 92 189 188
f 284 380 381
f 284 381 285
f 92 284 285
f 92 285 93
f 188 189 381
f 188 381 380
f 93 94 190
f 93 190 189
f 285 381 382
f 285 382 286
f 93 285 286
f 93 286 94
f 189 190 382
f 189 382 381
f 94 95 191
f 94 191 190
f 286 382 383
f 286 383 287
f 94 286 287
f 94 287 95
f 190 191 383
f 190 383 382
f 95 96 192
f 95 192 191
f 287 383 384
f 287 384 288
f 95 287 288
f 95 288 96
f 191 192 384
f 191 384 383
f 96 1 97
f 96 97 192
f 288 384 289
f 288 289 193
f 96 288 193
f 96 193 1
f 192 97 289
f 192 289 384
