# https://github.com/mikedh/trimesh
v -3.80000000 -0.00000000 97.70000000
v -3.82566542 -0.00000000 98.09157858
v -3.90222252 -0.00000000 98.47645714
v -4.02836140 -0.00000000 98.84805030
v -4.20192379 -0.00000000 99.20000000
v -4.41993998 -0.00000000 99.52628429
v -4.67867966 -0.00000000 99.82132034
v -4.97371571 -0.00000000 100.08006002
v -5.30000000 -0.00000000 100.29807621
v -5.65194970 -0.00000000 100.47163860
v -6.02354286 -0.00000000 100.59777748
v -6.40842142 -0.00000000 100.67433458
v -6.80000000 -0.00000000 100.70000000
v -25.60000000 -0.00000000 100.70000000
v -26.77473573 -0.00000000 100.62300375
v -27.92937141 -0.00000000 100.39333244
v -29.04415089 -0.00000000 100.01491579
v -30.10000000 -0.00000000 99.49422863
v -31.07885286 -0.00000000 98.84018006
v -31.96396103 -0.00000000 98.06396103
v -32.74018006 -0.00000000 97.17885286
v -33.39422863 -0.00000000 96.20000000
v -33.91491579 -0.00000000 95.14415089
v -34.29333244 -0.00000000 94.02937141
v -34.52300375 -0.00000000 92.87473573
v -34.60000000 -0.00000000 91.70000000
v -34.60000000 -0.00000000 10.30000000
v -34.52300375 -0.00000000 9.12526427
v -34.29333244 -0.00000000 7.97062859
v -33.91491579 -0.00000000 6.85584911
v -33.39422863 -0.00000000 5.80000000
v -32.74018006 -0.00000000 4.82114714
v -31.96396103 -0.00000000 3.93603897
v -31.07885286 -0.00000000 3.15981994
v -30.10000000 -0.00000000 2.50577137
v -29.04415089 -0.00000000 1.98508421
v -27.92937141 -0.00000000 1.60666756
v -26.77473573 -0.00000000 1.37699625
v -25.60000000 -0.00000000 1.30000000
v -6.80000000 -0.00000000 1.30000000
v -6.40842142 -0.00000000 1.32566542
v -6.02354286 -0.00000000 1.40222252
v -5.65194970 -0.00000000 1.52836140
v -5.30000000 -0.00000000 1.70192379
v -4.97371571 -0.00000000 1.91993998
v -4.67867966 -0.00000000 2.17867966
v -4.41993998 -0.00000000 2.47371571
v -4.20192379 -0.00000000 2.80000000
v -4.02836140 -0.00000000 3.15194970
v -3.90222252 -0.00000000 3.52354286
v -3.82566542 -0.00000000 3.90842142
v -3.80000000 -0.00000000 4.30000000
v -2.50000000 -1.30000000 99.00000000
v -2.52566542 -1.30000000 99.39157858
v -2.60222252 -1.30000000 99.77645714
v -2.72836140 -1.30000000 100.14805030
v -2.90192379 -1.30000000 100.50000000
v -3.11993998 -1.30000000 100.82628429
v -3.37867966 -1.30000000 101.12132034
v -3.67371571 -1.30000000 101.38006002
v -4.00000000 -1.30000000 101.59807621
v -4.35194970 -1.30000000 101.77163860
v -4.72354286 -1.30000000 101.89777748
v -5.10842142 -1.30000000 101.97433458
v -5.50000000 -1.30000000 102.00000000
v -26.90000000 -1.30000000 102.00000000
v -28.07473573 -1.30000000 101.92300375
v -29.22937141 -1.30000000 101.69333244
v -30.34415089 -1.30000000 101.31491579
v -31.40000000 -1.30000000 100.79422863
v -32.37885286 -1.30000000 100.14018006
v -33.26396103 -1.30000000 99.36396103
v -34.04018006 -1.30000000 98.47885286
v -34.69422863 -1.30000000 97.50000000
v -35.21491579 -1.30000000 96.44415089
v -35.59333244 -1.30000000 95.32937141
v -35.82300375 -1.30000000 94.17473573
v -35.90000000 -1.30000000 93.00000000
v -35.90000000 -1.30000000 9.00000000
v -35.82300375 -1.30000000 7.82526427
v -35.59333244 -1.30000000 6.67062859
v -35.21491579 -1.30000000 5.55584911
v -34.69422863 -1.30000000 4.50000000
v -34.04018006 -1.30000000 3.52114714
v -33.26396103 -1.30000000 2.63603897
v -32.37885286 -1.30000000 1.85981994
v -31.40000000 -1.30000000 1.20577137
v -30.34415089 -1.30000000 0.68508421
v -29.22937141 -1.30000000 0.30666756
v -28.07473573 -1.30000000 0.07699625
v -26.90000000 -1.30000000 0.00000000
v -5.50000000 -1.30000000 0.00000000
v -5.10842142 -1.30000000 0.02566542
v -4.72354286 -1.30000000 0.10222252
v -4.35194970 -1.30000000 0.22836140
v -4.00000000 -1.30000000 0.40192379
v -3.67371571 -1.30000000 0.61993998
v -3.37867966 -1.30000000 0.87867966
v -3.11993998 -1.30000000 1.17371571
v -2.90192379 -1.30000000 1.50000000
v -2.72836140 -1.30000000 1.85194970
v -2.60222252 -1.30000000 2.22354286
v -2.52566542 -1.30000000 2.60842142
v -2.50000000 -1.30000000 3.00000000
v -2.50000000 -12.60000000 99.00000000
v -2.52566542 -12.60000000 99.39157858
v -2.60222252 -12.60000000 99.77645714
v -2.72836140 -12.60000000 100.14805030
v -2.90192379 -12.60000000 100.50000000
v -3.11993998 -12.60000000 100.82628429
v -3.37867966 -12.60000000 101.12132034
v -3.67371571 -12.60000000 101.38006002
v -4.00000000 -12.60000000 101.59807621
v -4.35194970 -12.60000000 101.77163860
v -4.72354286 -12.60000000 101.89777748
v -5.10842142 -12.60000000 101.97433458
v -5.50000000 -12.60000000 102.00000000
v -26.90000000 -12.60000000 102.00000000
v -28.07473573 -12.60000000 101.92300375
v -29.22937141 -12.60000000 101.69333244
v -30.34415089 -12.60000000 101.31491579
v -31.40000000 -12.60000000 100.79422863
v -32.37885286 -12.60000000 100.14018006
v -33.26396103 -12.60000000 99.36396103
v -34.04018006 -12.60000000 98.47885286
v -34.69422863 -12.60000000 97.50000000
v -35.21491579 -12.60000000 96.44415089
v -35.59333244 -12.60000000 95.32937141
v -35.82300375 -12.60000000 94.17473573
v -35.90000000 -12.60000000 93.00000000
v -35.90000000 -12.60000000 9.00000000
v -35.82300375 -12.60000000 7.82526427
v -35.59333244 -12.60000000 6.67062859
v -35.21491579 -12.60000000 5.55584911
v -34.69422863 -12.60000000 4.50000000
v -34.04018006 -12.60000000 3.52114714
v -33.26396103 -12.60000000 2.63603897
v -32.37885286 -12.60000000 1.85981994
v -31.40000000 -12.60000000 1.20577137
v -30.34415089 -12.60000000 0.68508421
v -29.22937141 -12.60000000 0.30666756
v -28.07473573 -12.60000000 0.07699625
v -26.90000000 -12.60000000 0.00000000
v -5.50000000 -12.60000000 0.00000000
v -5.10842142 -12.60000000 0.02566542
v -4.72354286 -12.60000000 0.10222252
v -4.35194970 -12.60000000 0.22836140
v -4.00000000 -12.60000000 0.40192379
v -3.67371571 -12.60000000 0.61993998
v -3.37867966 -12.60000000 0.87867966
v -3.11993998 -12.60000000 1.17371571
v -2.90192379 -12.60000000 1.50000000
v -2.72836140 -12.60000000 1.85194970
v -2.60222252 -12.60000000 2.22354286
v -2.52566542 -12.60000000 2.60842142
v -2.50000000 -12.60000000 3.00000000
v -3.80000000 -13.90000000 97.70000000
v -3.82566542 -13.90000000 98.09157858
v -3.90222252 -13.90000000 98.47645714
v -4.02836140 -13.90000000 98.84805030
v -4.20192379 -13.90000000 99.20000000
v -4.41993998 -13.90000000 99.52628429
v -4.67867966 -13.90000000 99.82132034
v -4.97371571 -13.90000000 100.08006002
v -5.30000000 -13.90000000 100.29807621
v -5.65194970 -13.90000000 100.47163860
v -6.02354286 -13.90000000 100.59777748
v -6.40842142 -13.90000000 100.67433458
v -6.80000000 -13.90000000 100.70000000
v -25.60000000 -13.90000000 100.70000000
v -26.77473573 -13.90000000 100.62300375
v -27.92937141 -13.90000000 100.39333244
v -29.04415089 -13.90000000 100.01491579
v -30.10000000 -13.90000000 99.49422863
v -31.07885286 -13.90000000 98.84018006
v -31.96396103 -13.90000000 98.06396103
v -32.74018006 -13.90000000 97.17885286
v -33.39422863 -13.90000000 96.20000000
v -33.91491579 -13.90000000 95.14415089
v -34.29333244 -13.90000000 94.02937141
v -34.52300375 -13.90000000 92.87473573
v -34.60000000 -13.90000000 91.70000000
v -34.60000000 -13.90000000 10.30000000
v -34.52300375 -13.90000000 9.12526427
v -34.29333244 -13.90000000 7.97062859
v -33.91491579 -13.90000000 6.85584911
v -33.39422863 -13.90000000 5.80000000
v -32.74018006 -13.90000000 4.82114714
v -31.96396103 -13.90000000 3.93603897
v -31.07885286 -13.90000000 3.15981994
v -30.10000000 -13.90000000 2.50577137
v -29.04415089 -13.90000000 1.98508421
v -27.92937141 -13.90000000 1.60666756
v -26.77473573 -13.90000000 1.37699625
v -25.60000000 -13.90000000 1.30000000
v -6.80000000 -13.90000000 1.30000000
v -6.40842142 -13.90000000 1.32566542
v -6.02354286 -13.90000000 1.40222252
v -5.65194970 -13.90000000 1.52836140
v -5.30000000 -13.90000000 1.70192379
v -4.97371571 -13.90000000 1.91993998
v -4.67867966 -13.90000000 2.17867966
v -4.41993998 -13.90000000 2.47371571
v -4.20192379 -13.90000000 2.80000000
v -4.02836140 -13.90000000 3.15194970
v -3.90222252 -13.90000000 3.52354286
v -3.82566542 -13.90000000 3.90842142
v -3.80000000 -13.90000000 4.30000000
v -19.20000000 -0.00000000 51.00000000
v -19.20000000 -13.90000000 51.00000000
f 1 2 54
f 1 54 53
f 2 3 55
f 2 55 54
f 3 4 56
f 3 56 55
f 4 5 57
f 4 57 56
f 5 6 58
f 5 58 57
f 6 7 59
f 6 59 58
f 7 8 60
f 7 60 59
f 8 9 61
f 8 61 60
f 9 10 62
f 9 62 61
f 10 11 63
f 10 63 62
f 11 12 64
f 11 64 63
f 12 13 65
f 12 65 64
f 13 14 66
f 13 66 65
f 14 15 67
f 14 67 66
f 15 16 68
f 15 68 67
f 16 17 69
f 16 69 68
f 17 18 70
f 17 70 69
f 18 19 71
f 18 71 70
f 19 20 72
f 19 72 71
f 20 21 73
f 20 73 72
f 21 22 74
f 21 74 73
f 22 23 75
f 22 75 74
f 23 24 76
f 23 76 75
f 24 25 77
f 24 77 76
f 25 26 78
f 25 78 77
f 26 27 79
f 26 79 78
f 27 28 80
f 27 80 79
f 28 29 81
f 28 81 80
f 29 30 82
f 29 82 81
f 30 31 83
f 30 83 82
f 31 32 84
f 31 84 83
f 32 33 85
f 32 85 84
f 33 34 86
f 33 86 85
f 34 35 87
f 34 87 86
f 35 36 88
f 35 88 87
f 36 37 89
f 36 89 88
f 37 38 90
f 37 90 89
f 38 39 91
f 38 91 90
f 39 40 92
f 39 92 91
f 40 41 93
f 40 93 92
f 41 42 94
f 41 94 93
f 42 43 95
f 42 95 94
f 43 44 96
f 43 96 95
f 44 45 97
f 44 97 96
f 45 46 98
f 45 98 97
f 46 47 99
f 46 99 98
f 47 48 100
f 47 100 99
f 48 49 101
f 48 101 100
f 49 50 102
f 49 102 101
f 50 51 103
f 50 103 102
f 51 52 104
f 51 104 103
f 52 1 53
f 52 53 104
f 53 54 106
f 53 106 105
f 54 55 107
f 54 107 106
f 55 56 108
f 55 108 107
f 56 57 109
f 56 109 108
f 57 58 110
f 57 110 109
f 58 59 111
f 58 111 110
f 59 60 112
f 59 112 111
f 60 61 113
f 60 113 112
f 61 62 114
f 61 114 113
f 62 63 115
f 62 115 114
f 63 64 116
f 63 116 115
f 64 65 117
f 64 117 116
f 65 66 118
f 65 118 117
f 66 67 119
f 66 119 118
f 67 68 120
f 67 120 119
f 68 69 121
f 68 121 120
f 69 70 122
f 69 122 121
f 70 71 123
f 70 123 122
f 71 72 124
f 71 124 123
f 72 73 125
f 72 125 124
f 73 74 126
f 73 126 125
f 74 75 127
f 74 127 126
f 75 76 128
f 75 128 127
f 76 77 129
f 76 129 128
f 77 78 130
f 77 130 129
f 78 79 131
f 78 131 130
f 79 80 132
f 79 132 131
f 80 81 133
f 80 133 132
f 81 82 134
f 81 134 133
f 82 83 135
f 82 135 134
f 83 84 136
f 83 136 135
f 84 85 137
f 84 137 136
f 85 86 138
f 85 138 137
f 86 87 139
f 86 139 138
f 87 88 140
f 87 140 139
f 88 89 141
f 88 141 140
f 89 90 142
f 89 142 141
f 90 91 143
f 90 143 142
f 91 92 144
f 91 144 143
f 92 93 145
f 92 145 144
f 93 94 146
f 93 146 145
f 94 95 147
f 94 147 146
f 95 96 148
f 95 148 147
f 96 97 149
f 96 149 148
f 97 98 150
f 97 150 149
f 98 99 151
f 98 151 150
f 99 100 152
f 99 152 151
f 100 101 153
f 100 153 152
f 101 102 154
f 101 154 153
f 102 103 155
f 102 155 154
f 103 104 156
f 103 156 155
f 104 53 105
f 104 105 156
f 105 106 158
f 105 158 157
f 106 107 159
f 106 159 158
f 107 108 160
f 107 160 159
f 108 109 161
f 108 161 160
f 109 110 162
f 109 162 161
f 110 111 163
f 110 163 162
f 111 112 164
f 111 164 163
f 112 113 165
f 112 165 164
f 113 114 166
f 113 166 165
f 114 115 167
f 114 167 166
f 115 116 168
f 115 168 167
f 116 117 169
f 116 169 168
f 117 118 170
f 117 170 169
f 118 119 171
f 118 171 170
f 119 120 172
f 119 172 171
f 120 121 173
f 120 173 172
f 121 122 174
f 121 174 173
f 122 123 175
f 122 175 174
f 123 124 176
f 123 176 175
f 124 125 177
f 124 177 176
f 125 126 178
f 125 178 177
f 126 127 179
f 126 179 178
f 127 128 180
f 127 180 179
f 128 129 181
f 128 181 180
f 129 130 182
f 129 182 181
f 130 131 183
f 130 183 182
f 131 132 184
f 131 184 183
f 132 133 185
f 132 185 184
f 133 134 186
f 133 186 185
f 134 135 187
f 134 187 186
f 135 136 188
f 135 188 187
f 136 137 189
f 136 189 188
f 137 138 190
f 137 190 189
f 138 139 191
f 138 191 190
f 139 140 192
f 139 192 191
f 140 141 193
f 140 193 192
f 141 142 194
f 141 194 193
f 142 143 195
f 142 195 194
f 143 144 196
f 143 196 195
f 144 145 197
f 144 197 196
f 145 146 198
f 145 198 197
f 146 147 199
f 146 199 198
f 147 148 200
f 147 200 199
f 148 149 201
f 148 201 200
f 149 150 202
f 149 202 201
f 150 151 203
f 150 203 202
f 151 152 204
f 151 204 203
f 152 153 205
f 152 205 204
f 153 154 206
f 153 206 205
f 154 155 207
f 154 207 206
f 155 156 208
f 155 208 207
f 156 105 157
f 156 157 208
f 2 1 209
f 3 2 209
f 4 3 209
f 5 4 209
f 6 5 209
f 7 6 209
f 8 7 209
f 9 8 209
f 10 9 209
f 11 10 209
f 12 11 209
f 13 12 209
f 14 13 209
f 15 14 209
f 16 15 209
f 17 16 209
f 18 17 209
f 19 18 209
f 20 19 209
f 21 20 209
f 22 21 209
f 23 22 209
f 24 23 209
f 25 24 209
f 26 25 209
f 27 26 209
f 28 27 209
f 29 28 209
f 30 29 209
f 31 30 209
f 32 31 209
f 33 32 209
f 34 33 209
f 35 34 209
f 36 35 209
f 37 36 209
f 38 37 209
f 39 38 209
f 40 39 209
f 41 40 209
f 42 41 209
f 43 42 209
f 44 43 209
f 45 44 209
f 46 45 209
f 47 46 209
f 48 47 209
f 49 48 209
f 50 49 209
f 51 50 209
f 52 51 209
f 1 52 209
f 210 157 158
f 210 158 159
f 210 159 160
f 210 160 161
f 210 161 162
f 210 162 163
f 210 163 164
f 210 164 165
f 210 165 166
f 210 166 167
f 210 167 168
f 210 168 169
f 210 169 170
f 210 170 171
f 210 171 172
f 210 172 173
f 210 173 174
f 210 174 175
f 210 175 176
f 210 176 177
f 210 177 178
f 210 178 179
f 210 179 180
f 210 180 181
f 210 181 182
f 210 182 183
f 210 183 184
f 210 184 185
f 210 185 186
f 210 186 187
f 210 187 188
f 210 188 189
f 210 189 190
f 210 190 191
f 210 191 192
f 210 192 193
f 210 193 194
f 210 194 195
f 210 195 196
f 210 196 197
f 210 197 198
f 210 198 199
f 210 199 200
f 210 200 201
f 210 201 202
f 210 202 203
f 210 203 204
f 210 204 205
f 210 205 206
f 210 206 207
f 210 207 208
f 210 208 157

