# Schematic 2550 six-slot extrusion. Units mm. Not manufacturer CAD.
v -12.5 -100 -25
v -10 -100 -25
v -10 -100 -22.5
v -12.5 -100 -22.5
v -12.5 100 -22.5
v -10 100 -22.5
v -10 100 -25
v -12.5 100 -25
v -10 -100 -18.5
v -12.5 -100 -18.5
v -12.5 100 -18.5
v -10 100 -18.5
v -10 -100 -17.5
v -12.5 -100 -17.5
v -12.5 100 -17.5
v -10 100 -17.5
v -10 -100 -15.5
v -12.5 -100 -15.5
v -12.5 100 -15.5
v -10 100 -15.5
v -12.5 -100 -9.5
v -10 -100 -9.5
v -10 -100 -7.5
v -12.5 -100 -7.5
v -12.5 100 -7.5
v -10 100 -7.5
v -10 100 -9.5
v -12.5 100 -9.5
v -10 -100 7.5
v -12.5 -100 7.5
v -12.5 100 7.5
v -10 100 7.5
v -10 -100 9.5
v -12.5 -100 9.5
v -12.5 100 9.5
v -10 100 9.5
v -12.5 -100 15.5
v -10 -100 15.5
v -10 -100 17.5
v -12.5 -100 17.5
v -12.5 100 17.5
v -10 100 17.5
v -10 100 15.5
v -12.5 100 15.5
v -10 -100 18.5
v -12.5 -100 18.5
v -12.5 100 18.5
v -10 100 18.5
v -10 -100 22.5
v -12.5 -100 22.5
v -12.5 100 22.5
v -10 100 22.5
v -10 -100 25
v -12.5 -100 25
v -12.5 100 25
v -10 100 25
v -6 -100 -25
v -6 -100 -22.5
v -6 100 -22.5
v -6 100 -25
v -6 -100 -18.5
v -6 100 -18.5
v -6 -100 -17.5
v -6 100 -17.5
v -6 -100 -7.5
v -6 -100 7.5
v -6 100 7.5
v -6 100 -7.5
v -6 -100 17.5
v -6 -100 18.5
v -6 100 18.5
v -6 100 17.5
v -6 -100 22.5
v -6 100 22.5
v -6 -100 25
v -6 100 25
v -5 -100 -25
v -5 -100 -22.5
v -5 100 -22.5
v -5 100 -25
v -5 -100 -18.5
v -5 100 -18.5
v -5 -100 -17.5
v -5 100 -17.5
v -5 -100 -15.5
v -6 -100 -15.5
v -6 100 -15.5
v -5 100 -15.5
v -5 -100 -9.5
v -6 -100 -9.5
v -6 100 -9.5
v -5 100 -9.5
v -5 -100 -7.5
v -5 100 -7.5
v -5 -100 7.5
v -5 100 7.5
v -5 -100 9.5
v -6 -100 9.5
v -6 100 9.5
v -5 100 9.5
v -5 -100 15.5
v -6 -100 15.5
v -6 100 15.5
v -5 100 15.5
v -5 -100 17.5
v -5 100 17.5
v -5 -100 18.5
v -5 100 18.5
v -5 -100 22.5
v -5 100 22.5
v -5 -100 25
v -5 100 25
v -3 -100 -25
v -3 -100 -22.5
v -3 100 -22.5
v -3 100 -25
v -3 -100 -18.5
v -3 -100 -17.5
v -3 100 -17.5
v -3 100 -18.5
v -3 -100 -15.5
v -3 100 -15.5
v -3 -100 -9.5
v -3 100 -9.5
v -3 -100 -7.5
v -3 100 -7.5
v -3 -100 7.5
v -3 100 7.5
v -3 -100 9.5
v -3 100 9.5
v -3 -100 15.5
v -3 100 15.5
v -3 -100 17.5
v -3 100 17.5
v -3 -100 18.5
v -3 100 18.5
v -3 -100 22.5
v -3 -100 25
v -3 100 25
v -3 100 22.5
v 3 -100 -18.5
v 3 -100 -17.5
v 3 100 -17.5
v 3 100 -18.5
v 3 -100 -15.5
v 3 100 -15.5
v 3 -100 -9.5
v 3 100 -9.5
v 3 -100 -7.5
v 3 100 -7.5
v 3 -100 7.5
v 3 100 7.5
v 3 -100 9.5
v 3 100 9.5
v 3 -100 15.5
v 3 100 15.5
v 3 -100 17.5
v 3 100 17.5
v 3 -100 18.5
v 3 100 18.5
v 3 -100 -25
v 5 -100 -25
v 5 -100 -22.5
v 3 -100 -22.5
v 3 100 -22.5
v 5 100 -22.5
v 5 100 -25
v 3 100 -25
v 5 -100 -18.5
v 5 -100 -17.5
v 5 100 -17.5
v 5 100 -18.5
v 5 -100 -15.5
v 5 100 -15.5
v 5 -100 -9.5
v 5 100 -9.5
v 5 -100 -7.5
v 5 100 -7.5
v 5 -100 7.5
v 5 100 7.5
v 5 -100 9.5
v 5 100 9.5
v 5 -100 15.5
v 5 100 15.5
v 5 -100 17.5
v 5 100 17.5
v 5 -100 18.5
v 5 100 18.5
v 3 -100 22.5
v 5 -100 22.5
v 5 -100 25
v 3 -100 25
v 3 100 25
v 5 100 25
v 5 100 22.5
v 3 100 22.5
v 6 -100 -25
v 6 -100 -22.5
v 6 100 -22.5
v 6 100 -25
v 6 -100 -18.5
v 6 100 -18.5
v 6 -100 -17.5
v 6 100 -17.5
v 6 -100 -15.5
v 6 100 -15.5
v 6 -100 -9.5
v 6 100 -9.5
v 6 -100 -7.5
v 6 100 -7.5
v 6 -100 7.5
v 6 100 7.5
v 6 -100 9.5
v 6 100 9.5
v 6 -100 15.5
v 6 100 15.5
v 6 -100 17.5
v 6 100 17.5
v 6 -100 18.5
v 6 100 18.5
v 6 -100 22.5
v 6 100 22.5
v 6 -100 25
v 6 100 25
v 10 -100 -25
v 10 -100 -22.5
v 10 100 -22.5
v 10 100 -25
v 10 -100 -18.5
v 10 100 -18.5
v 10 -100 -17.5
v 10 100 -17.5
v 10 -100 -7.5
v 10 -100 7.5
v 10 100 7.5
v 10 100 -7.5
v 10 -100 17.5
v 10 -100 18.5
v 10 100 18.5
v 10 100 17.5
v 10 -100 22.5
v 10 100 22.5
v 10 -100 25
v 10 100 25
v 12.5 -100 -25
v 12.5 -100 -22.5
v 12.5 100 -22.5
v 12.5 100 -25
v 12.5 -100 -18.5
v 12.5 100 -18.5
v 12.5 -100 -17.5
v 12.5 100 -17.5
v 12.5 -100 -15.5
v 10 -100 -15.5
v 10 100 -15.5
v 12.5 100 -15.5
v 10 -100 -9.5
v 12.5 -100 -9.5
v 12.5 -100 -7.5
v 12.5 100 -7.5
v 12.5 100 -9.5
v 10 100 -9.5
v 12.5 -100 7.5
v 12.5 100 7.5
v 12.5 -100 9.5
v 10 -100 9.5
v 10 100 9.5
v 12.5 100 9.5
v 10 -100 15.5
v 12.5 -100 15.5
v 12.5 -100 17.5
v 12.5 100 17.5
v 12.5 100 15.5
v 10 100 15.5
v 12.5 -100 18.5
v 12.5 100 18.5
v 12.5 -100 22.5
v 12.5 100 22.5
v 12.5 -100 25
v 12.5 100 25
f 1 2 3
f 1 3 4
f 5 6 7
f 5 7 8
f 4 5 8
f 4 8 1
f 8 7 2
f 8 2 1
f 4 3 9
f 4 9 10
f 11 12 6
f 11 6 5
f 10 11 5
f 10 5 4
f 10 9 13
f 10 13 14
f 15 16 12
f 15 12 11
f 14 15 11
f 14 11 10
f 14 13 17
f 14 17 18
f 19 20 16
f 19 16 15
f 18 19 15
f 18 15 14
f 13 16 20
f 13 20 17
f 18 17 20
f 18 20 19
f 21 22 23
f 21 23 24
f 25 26 27
f 25 27 28
f 24 25 28
f 24 28 21
f 22 27 26
f 22 26 23
f 28 27 22
f 28 22 21
f 24 23 29
f 24 29 30
f 31 32 26
f 31 26 25
f 30 31 25
f 30 25 24
f 30 29 33
f 30 33 34
f 35 36 32
f 35 32 31
f 34 35 31
f 34 31 30
f 29 32 36
f 29 36 33
f 34 33 36
f 34 36 35
f 37 38 39
f 37 39 40
f 41 42 43
f 41 43 44
f 40 41 44
f 40 44 37
f 38 43 42
f 38 42 39
f 44 43 38
f 44 38 37
f 40 39 45
f 40 45 46
f 47 48 42
f 47 42 41
f 46 47 41
f 46 41 40
f 46 45 49
f 46 49 50
f 51 52 48
f 51 48 47
f 50 51 47
f 50 47 46
f 50 49 53
f 50 53 54
f 55 56 52
f 55 52 51
f 54 55 51
f 54 51 50
f 54 53 56
f 54 56 55
f 2 57 58
f 2 58 3
f 6 59 60
f 6 60 7
f 7 60 57
f 7 57 2
f 3 58 61
f 3 61 9
f 12 62 59
f 12 59 6
f 9 61 63
f 9 63 13
f 16 64 62
f 16 62 12
f 13 63 64
f 13 64 16
f 23 65 66
f 23 66 29
f 32 67 68
f 32 68 26
f 26 68 65
f 26 65 23
f 29 66 67
f 29 67 32
f 39 69 70
f 39 70 45
f 48 71 72
f 48 72 42
f 42 72 69
f 42 69 39
f 45 70 73
f 45 73 49
f 52 74 71
f 52 71 48
f 49 73 75
f 49 75 53
f 56 76 74
f 56 74 52
f 53 75 76
f 53 76 56
f 57 77 78
f 57 78 58
f 59 79 80
f 59 80 60
f 60 80 77
f 60 77 57
f 58 78 81
f 58 81 61
f 62 82 79
f 62 79 59
f 78 79 82
f 78 82 81
f 61 81 83
f 61 83 63
f 64 84 82
f 64 82 62
f 63 83 85
f 63 85 86
f 87 88 84
f 87 84 64
f 86 87 64
f 86 64 63
f 86 85 89
f 86 89 90
f 91 92 88
f 91 88 87
f 90 91 87
f 90 87 86
f 90 89 93
f 90 93 65
f 68 94 92
f 68 92 91
f 65 68 91
f 65 91 90
f 65 93 95
f 65 95 66
f 67 96 94
f 67 94 68
f 66 95 97
f 66 97 98
f 99 100 96
f 99 96 67
f 98 99 67
f 98 67 66
f 98 97 101
f 98 101 102
f 103 104 100
f 103 100 99
f 102 103 99
f 102 99 98
f 102 101 105
f 102 105 69
f 72 106 104
f 72 104 103
f 69 72 103
f 69 103 102
f 69 105 107
f 69 107 70
f 71 108 106
f 71 106 72
f 70 107 109
f 70 109 73
f 74 110 108
f 74 108 71
f 107 108 110
f 107 110 109
f 73 109 111
f 73 111 75
f 76 112 110
f 76 110 74
f 75 111 112
f 75 112 76
f 77 113 114
f 77 114 78
f 79 115 116
f 79 116 80
f 113 116 115
f 113 115 114
f 80 116 113
f 80 113 77
f 78 114 115
f 78 115 79
f 81 117 118
f 81 118 83
f 84 119 120
f 84 120 82
f 82 120 117
f 82 117 81
f 83 118 121
f 83 121 85
f 88 122 119
f 88 119 84
f 85 121 123
f 85 123 89
f 92 124 122
f 92 122 88
f 89 123 125
f 89 125 93
f 94 126 124
f 94 124 92
f 93 125 127
f 93 127 95
f 96 128 126
f 96 126 94
f 95 127 129
f 95 129 97
f 100 130 128
f 100 128 96
f 97 129 131
f 97 131 101
f 104 132 130
f 104 130 100
f 101 131 133
f 101 133 105
f 106 134 132
f 106 132 104
f 105 133 135
f 105 135 107
f 108 136 134
f 108 134 106
f 107 135 136
f 107 136 108
f 109 137 138
f 109 138 111
f 112 139 140
f 112 140 110
f 137 140 139
f 137 139 138
f 110 140 137
f 110 137 109
f 111 138 139
f 111 139 112
f 117 141 142
f 117 142 118
f 119 143 144
f 119 144 120
f 120 144 141
f 120 141 117
f 118 142 145
f 118 145 121
f 122 146 143
f 122 143 119
f 121 145 147
f 121 147 123
f 124 148 146
f 124 146 122
f 123 147 149
f 123 149 125
f 126 150 148
f 126 148 124
f 125 149 151
f 125 151 127
f 128 152 150
f 128 150 126
f 127 151 153
f 127 153 129
f 130 154 152
f 130 152 128
f 129 153 155
f 129 155 131
f 132 156 154
f 132 154 130
f 131 155 157
f 131 157 133
f 134 158 156
f 134 156 132
f 133 157 159
f 133 159 135
f 136 160 158
f 136 158 134
f 135 159 160
f 135 160 136
f 161 162 163
f 161 163 164
f 165 166 167
f 165 167 168
f 164 165 168
f 164 168 161
f 168 167 162
f 168 162 161
f 164 163 166
f 164 166 165
f 141 169 170
f 141 170 142
f 143 171 172
f 143 172 144
f 144 172 169
f 144 169 141
f 142 170 173
f 142 173 145
f 146 174 171
f 146 171 143
f 145 173 175
f 145 175 147
f 148 176 174
f 148 174 146
f 147 175 177
f 147 177 149
f 150 178 176
f 150 176 148
f 149 177 179
f 149 179 151
f 152 180 178
f 152 178 150
f 151 179 181
f 151 181 153
f 154 182 180
f 154 180 152
f 153 181 183
f 153 183 155
f 156 184 182
f 156 182 154
f 155 183 185
f 155 185 157
f 158 186 184
f 158 184 156
f 157 185 187
f 157 187 159
f 160 188 186
f 160 186 158
f 159 187 188
f 159 188 160
f 189 190 191
f 189 191 192
f 193 194 195
f 193 195 196
f 192 193 196
f 192 196 189
f 196 195 190
f 196 190 189
f 192 191 194
f 192 194 193
f 162 197 198
f 162 198 163
f 166 199 200
f 166 200 167
f 167 200 197
f 167 197 162
f 163 198 201
f 163 201 169
f 172 202 199
f 172 199 166
f 169 172 166
f 169 166 163
f 169 201 203
f 169 203 170
f 171 204 202
f 171 202 172
f 170 203 205
f 170 205 173
f 174 206 204
f 174 204 171
f 203 204 206
f 203 206 205
f 173 205 207
f 173 207 175
f 176 208 206
f 176 206 174
f 205 206 208
f 205 208 207
f 175 207 209
f 175 209 177
f 178 210 208
f 178 208 176
f 207 208 210
f 207 210 209
f 177 209 211
f 177 211 179
f 180 212 210
f 180 210 178
f 179 211 213
f 179 213 181
f 182 214 212
f 182 212 180
f 211 212 214
f 211 214 213
f 181 213 215
f 181 215 183
f 184 216 214
f 184 214 182
f 213 214 216
f 213 216 215
f 183 215 217
f 183 217 185
f 186 218 216
f 186 216 184
f 215 216 218
f 215 218 217
f 185 217 219
f 185 219 187
f 188 220 218
f 188 218 186
f 187 219 221
f 187 221 190
f 195 222 220
f 195 220 188
f 190 195 188
f 190 188 187
f 190 221 223
f 190 223 191
f 194 224 222
f 194 222 195
f 191 223 224
f 191 224 194
f 197 225 226
f 197 226 198
f 199 227 228
f 199 228 200
f 200 228 225
f 200 225 197
f 198 226 229
f 198 229 201
f 202 230 227
f 202 227 199
f 201 229 231
f 201 231 203
f 204 232 230
f 204 230 202
f 203 231 232
f 203 232 204
f 209 233 234
f 209 234 211
f 212 235 236
f 212 236 210
f 210 236 233
f 210 233 209
f 211 234 235
f 211 235 212
f 217 237 238
f 217 238 219
f 220 239 240
f 220 240 218
f 218 240 237
f 218 237 217
f 219 238 241
f 219 241 221
f 222 242 239
f 222 239 220
f 221 241 243
f 221 243 223
f 224 244 242
f 224 242 222
f 223 243 244
f 223 244 224
f 225 245 246
f 225 246 226
f 227 247 248
f 227 248 228
f 245 248 247
f 245 247 246
f 228 248 245
f 228 245 225
f 226 246 249
f 226 249 229
f 230 250 247
f 230 247 227
f 246 247 250
f 246 250 249
f 229 249 251
f 229 251 231
f 232 252 250
f 232 250 230
f 249 250 252
f 249 252 251
f 231 251 253
f 231 253 254
f 255 256 252
f 255 252 232
f 254 255 232
f 254 232 231
f 251 252 256
f 251 256 253
f 254 253 256
f 254 256 255
f 257 258 259
f 257 259 233
f 236 260 261
f 236 261 262
f 233 236 262
f 233 262 257
f 258 261 260
f 258 260 259
f 262 261 258
f 262 258 257
f 233 259 263
f 233 263 234
f 235 264 260
f 235 260 236
f 259 260 264
f 259 264 263
f 234 263 265
f 234 265 266
f 267 268 264
f 267 264 235
f 266 267 235
f 266 235 234
f 263 264 268
f 263 268 265
f 266 265 268
f 266 268 267
f 269 270 271
f 269 271 237
f 240 272 273
f 240 273 274
f 237 240 274
f 237 274 269
f 270 273 272
f 270 272 271
f 274 273 270
f 274 270 269
f 237 271 275
f 237 275 238
f 239 276 272
f 239 272 240
f 271 272 276
f 271 276 275
f 238 275 277
f 238 277 241
f 242 278 276
f 242 276 239
f 275 276 278
f 275 278 277
f 241 277 279
f 241 279 243
f 244 280 278
f 244 278 242
f 277 278 280
f 277 280 279
f 243 279 280
f 243 280 244
