# Mirrored across local XZ from joycon_shell.obj; derived visualization mesh.
# https://github.com/mikedh/trimesh
v -3.8 0 97.7
v -3.82566542 0 98.09157858
v -3.90222252 0 98.47645714
v -4.0283614 0 98.8480503
v -4.20192379 0 99.2
v -4.41993998 0 99.52628429
v -4.67867966 0 99.82132034
v -4.97371571 0 100.08006002
v -5.3 0 100.29807621
v -5.6519497 0 100.4716386
v -6.02354286 0 100.59777748
v -6.40842142 0 100.67433458
v -6.8 0 100.7
v -25.6 0 100.7
v -26.77473573 0 100.62300375
v -27.92937141 0 100.39333244
v -29.04415089 0 100.01491579
v -30.1 0 99.49422863
v -31.07885286 0 98.84018006
v -31.96396103 0 98.06396103
v -32.74018006 0 97.17885286
v -33.39422863 0 96.2
v -33.91491579 0 95.14415089
v -34.29333244 0 94.02937141
v -34.52300375 0 92.87473573
v -34.6 0 91.7
v -34.6 0 10.3
v -34.52300375 0 9.12526427
v -34.29333244 0 7.97062859
v -33.91491579 0 6.85584911
v -33.39422863 0 5.8
v -32.74018006 0 4.82114714
v -31.96396103 0 3.93603897
v -31.07885286 0 3.15981994
v -30.1 0 2.50577137
v -29.04415089 0 1.98508421
v -27.92937141 0 1.60666756
v -26.77473573 0 1.37699625
v -25.6 0 1.3
v -6.8 0 1.3
v -6.40842142 0 1.32566542
v -6.02354286 0 1.40222252
v -5.6519497 0 1.5283614
v -5.3 0 1.70192379
v -4.97371571 0 1.91993998
v -4.67867966 0 2.17867966
v -4.41993998 0 2.47371571
v -4.20192379 0 2.8
v -4.0283614 0 3.1519497
v -3.90222252 0 3.52354286
v -3.82566542 0 3.90842142
v -3.8 0 4.3
v -2.5 1.3 99
v -2.52566542 1.3 99.39157858
v -2.60222252 1.3 99.77645714
v -2.7283614 1.3 100.1480503
v -2.90192379 1.3 100.5
v -3.11993998 1.3 100.82628429
v -3.37867966 1.3 101.12132034
v -3.67371571 1.3 101.38006002
v -4 1.3 101.59807621
v -4.3519497 1.3 101.7716386
v -4.72354286 1.3 101.89777748
v -5.10842142 1.3 101.97433458
v -5.5 1.3 102
v -26.9 1.3 102
v -28.07473573 1.3 101.92300375
v -29.22937141 1.3 101.69333244
v -30.34415089 1.3 101.31491579
v -31.4 1.3 100.79422863
v -32.37885286 1.3 100.14018006
v -33.26396103 1.3 99.36396103
v -34.04018006 1.3 98.47885286
v -34.69422863 1.3 97.5
v -35.21491579 1.3 96.44415089
v -35.59333244 1.3 95.32937141
v -35.82300375 1.3 94.17473573
v -35.9 1.3 93
v -35.9 1.3 9
v -35.82300375 1.3 7.82526427
v -35.59333244 1.3 6.67062859
v -35.21491579 1.3 5.55584911
v -34.69422863 1.3 4.5
v -34.04018006 1.3 3.52114714
v -33.26396103 1.3 2.63603897
v -32.37885286 1.3 1.85981994
v -31.4 1.3 1.20577137
v -30.34415089 1.3 0.68508421
v -29.22937141 1.3 0.30666756
v -28.07473573 1.3 0.07699625
v -26.9 1.3 0
v -5.5 1.3 0
v -5.10842142 1.3 0.02566542
v -4.72354286 1.3 0.10222252
v -4.3519497 1.3 0.2283614
v -4 1.3 0.40192379
v -3.67371571 1.3 0.61993998
v -3.37867966 1.3 0.87867966
v -3.11993998 1.3 1.17371571
v -2.90192379 1.3 1.5
v -2.7283614 1.3 1.8519497
v -2.60222252 1.3 2.22354286
v -2.52566542 1.3 2.60842142
v -2.5 1.3 3
v -2.5 12.6 99
v -2.52566542 12.6 99.39157858
v -2.60222252 12.6 99.77645714
v -2.7283614 12.6 100.1480503
v -2.90192379 12.6 100.5
v -3.11993998 12.6 100.82628429
v -3.37867966 12.6 101.12132034
v -3.67371571 12.6 101.38006002
v -4 12.6 101.59807621
v -4.3519497 12.6 101.7716386
v -4.72354286 12.6 101.89777748
v -5.10842142 12.6 101.97433458
v -5.5 12.6 102
v -26.9 12.6 102
v -28.07473573 12.6 101.92300375
v -29.22937141 12.6 101.69333244
v -30.34415089 12.6 101.31491579
v -31.4 12.6 100.79422863
v -32.37885286 12.6 100.14018006
v -33.26396103 12.6 99.36396103
v -34.04018006 12.6 98.47885286
v -34.69422863 12.6 97.5
v -35.21491579 12.6 96.44415089
v -35.59333244 12.6 95.32937141
v -35.82300375 12.6 94.17473573
v -35.9 12.6 93
v -35.9 12.6 9
v -35.82300375 12.6 7.82526427
v -35.59333244 12.6 6.67062859
v -35.21491579 12.6 5.55584911
v -34.69422863 12.6 4.5
v -34.04018006 12.6 3.52114714
v -33.26396103 12.6 2.63603897
v -32.37885286 12.6 1.85981994
v -31.4 12.6 1.20577137
v -30.34415089 12.6 0.68508421
v -29.22937141 12.6 0.30666756
v -28.07473573 12.6 0.07699625
v -26.9 12.6 0
v -5.5 12.6 0
v -5.10842142 12.6 0.02566542
v -4.72354286 12.6 0.10222252
v -4.3519497 12.6 0.2283614
v -4 12.6 0.40192379
v -3.67371571 12.6 0.61993998
v -3.37867966 12.6 0.87867966
v -3.11993998 12.6 1.17371571
v -2.90192379 12.6 1.5
v -2.7283614 12.6 1.8519497
v -2.60222252 12.6 2.22354286
v -2.52566542 12.6 2.60842142
v -2.5 12.6 3
v -3.8 13.9 97.7
v -3.82566542 13.9 98.09157858
v -3.90222252 13.9 98.47645714
v -4.0283614 13.9 98.8480503
v -4.20192379 13.9 99.2
v -4.41993998 13.9 99.52628429
v -4.67867966 13.9 99.82132034
v -4.97371571 13.9 100.08006002
v -5.3 13.9 100.29807621
v -5.6519497 13.9 100.4716386
v -6.02354286 13.9 100.59777748
v -6.40842142 13.9 100.67433458
v -6.8 13.9 100.7
v -25.6 13.9 100.7
v -26.77473573 13.9 100.62300375
v -27.92937141 13.9 100.39333244
v -29.04415089 13.9 100.01491579
v -30.1 13.9 99.49422863
v -31.07885286 13.9 98.84018006
v -31.96396103 13.9 98.06396103
v -32.74018006 13.9 97.17885286
v -33.39422863 13.9 96.2
v -33.91491579 13.9 95.14415089
v -34.29333244 13.9 94.02937141
v -34.52300375 13.9 92.87473573
v -34.6 13.9 91.7
v -34.6 13.9 10.3
v -34.52300375 13.9 9.12526427
v -34.29333244 13.9 7.97062859
v -33.91491579 13.9 6.85584911
v -33.39422863 13.9 5.8
v -32.74018006 13.9 4.82114714
v -31.96396103 13.9 3.93603897
v -31.07885286 13.9 3.15981994
v -30.1 13.9 2.50577137
v -29.04415089 13.9 1.98508421
v -27.92937141 13.9 1.60666756
v -26.77473573 13.9 1.37699625
v -25.6 13.9 1.3
v -6.8 13.9 1.3
v -6.40842142 13.9 1.32566542
v -6.02354286 13.9 1.40222252
v -5.6519497 13.9 1.5283614
v -5.3 13.9 1.70192379
v -4.97371571 13.9 1.91993998
v -4.67867966 13.9 2.17867966
v -4.41993998 13.9 2.47371571
v -4.20192379 13.9 2.8
v -4.0283614 13.9 3.1519497
v -3.90222252 13.9 3.52354286
v -3.82566542 13.9 3.90842142
v -3.8 13.9 4.3
v -19.2 0 51
v -19.2 13.9 51
f 54 2 1
f 53 54 1
f 55 3 2
f 54 55 2
f 56 4 3
f 55 56 3
f 57 5 4
f 56 57 4
f 58 6 5
f 57 58 5
f 59 7 6
f 58 59 6
f 60 8 7
f 59 60 7
f 61 9 8
f 60 61 8
f 62 10 9
f 61 62 9
f 63 11 10
f 62 63 10
f 64 12 11
f 63 64 11
f 65 13 12
f 64 65 12
f 66 14 13
f 65 66 13
f 67 15 14
f 66 67 14
f 68 16 15
f 67 68 15
f 69 17 16
f 68 69 16
f 70 18 17
f 69 70 17
f 71 19 18
f 70 71 18
f 72 20 19
f 71 72 19
f 73 21 20
f 72 73 20
f 74 22 21
f 73 74 21
f 75 23 22
f 74 75 22
f 76 24 23
f 75 76 23
f 77 25 24
f 76 77 24
f 78 26 25
f 77 78 25
f 79 27 26
f 78 79 26
f 80 28 27
f 79 80 27
f 81 29 28
f 80 81 28
f 82 30 29
f 81 82 29
f 83 31 30
f 82 83 30
f 84 32 31
f 83 84 31
f 85 33 32
f 84 85 32
f 86 34 33
f 85 86 33
f 87 35 34
f 86 87 34
f 88 36 35
f 87 88 35
f 89 37 36
f 88 89 36
f 90 38 37
f 89 90 37
f 91 39 38
f 90 91 38
f 92 40 39
f 91 92 39
f 93 41 40
f 92 93 40
f 94 42 41
f 93 94 41
f 95 43 42
f 94 95 42
f 96 44 43
f 95 96 43
f 97 45 44
f 96 97 44
f 98 46 45
f 97 98 45
f 99 47 46
f 98 99 46
f 100 48 47
f 99 100 47
f 101 49 48
f 100 101 48
f 102 50 49
f 101 102 49
f 103 51 50
f 102 103 50
f 104 52 51
f 103 104 51
f 53 1 52
f 104 53 52
f 106 54 53
f 105 106 53
f 107 55 54
f 106 107 54
f 108 56 55
f 107 108 55
f 109 57 56
f 108 109 56
f 110 58 57
f 109 110 57
f 111 59 58
f 110 111 58
f 112 60 59
f 111 112 59
f 113 61 60
f 112 113 60
f 114 62 61
f 113 114 61
f 115 63 62
f 114 115 62
f 116 64 63
f 115 116 63
f 117 65 64
f 116 117 64
f 118 66 65
f 117 118 65
f 119 67 66
f 118 119 66
f 120 68 67
f 119 120 67
f 121 69 68
f 120 121 68
f 122 70 69
f 121 122 69
f 123 71 70
f 122 123 70
f 124 72 71
f 123 124 71
f 125 73 72
f 124 125 72
f 126 74 73
f 125 126 73
f 127 75 74
f 126 127 74
f 128 76 75
f 127 128 75
f 129 77 76
f 128 129 76
f 130 78 77
f 129 130 77
f 131 79 78
f 130 131 78
f 132 80 79
f 131 132 79
f 133 81 80
f 132 133 80
f 134 82 81
f 133 134 81
f 135 83 82
f 134 135 82
f 136 84 83
f 135 136 83
f 137 85 84
f 136 137 84
f 138 86 85
f 137 138 85
f 139 87 86
f 138 139 86
f 140 88 87
f 139 140 87
f 141 89 88
f 140 141 88
f 142 90 89
f 141 142 89
f 143 91 90
f 142 143 90
f 144 92 91
f 143 144 91
f 145 93 92
f 144 145 92
f 146 94 93
f 145 146 93
f 147 95 94
f 146 147 94
f 148 96 95
f 147 148 95
f 149 97 96
f 148 149 96
f 150 98 97
f 149 150 97
f 151 99 98
f 150 151 98
f 152 100 99
f 151 152 99
f 153 101 100
f 152 153 100
f 154 102 101
f 153 154 101
f 155 103 102
f 154 155 102
f 156 104 103
f 155 156 103
f 105 53 104
f 156 105 104
f 158 106 105
f 157 158 105
f 159 107 106
f 158 159 106
f 160 108 107
f 159 160 107
f 161 109 108
f 160 161 108
f 162 110 109
f 161 162 109
f 163 111 110
f 162 163 110
f 164 112 111
f 163 164 111
f 165 113 112
f 164 165 112
f 166 114 113
f 165 166 113
f 167 115 114
f 166 167 114
f 168 116 115
f 167 168 115
f 169 117 116
f 168 169 116
f 170 118 117
f 169 170 117
f 171 119 118
f 170 171 118
f 172 120 119
f 171 172 119
f 173 121 120
f 172 173 120
f 174 122 121
f 173 174 121
f 175 123 122
f 174 175 122
f 176 124 123
f 175 176 123
f 177 125 124
f 176 177 124
f 178 126 125
f 177 178 125
f 179 127 126
f 178 179 126
f 180 128 127
f 179 180 127
f 181 129 128
f 180 181 128
f 182 130 129
f 181 182 129
f 183 131 130
f 182 183 130
f 184 132 131
f 183 184 131
f 185 133 132
f 184 185 132
f 186 134 133
f 185 186 133
f 187 135 134
f 186 187 134
f 188 136 135
f 187 188 135
f 189 137 136
f 188 189 136
f 190 138 137
f 189 190 137
f 191 139 138
f 190 191 138
f 192 140 139
f 191 192 139
f 193 141 140
f 192 193 140
f 194 142 141
f 193 194 141
f 195 143 142
f 194 195 142
f 196 144 143
f 195 196 143
f 197 145 144
f 196 197 144
f 198 146 145
f 197 198 145
f 199 147 146
f 198 199 146
f 200 148 147
f 199 200 147
f 201 149 148
f 200 201 148
f 202 150 149
f 201 202 149
f 203 151 150
f 202 203 150
f 204 152 151
f 203 204 151
f 205 153 152
f 204 205 152
f 206 154 153
f 205 206 153
f 207 155 154
f 206 207 154
f 208 156 155
f 207 208 155
f 157 105 156
f 208 157 156
f 209 1 2
f 209 2 3
f 209 3 4
f 209 4 5
f 209 5 6
f 209 6 7
f 209 7 8
f 209 8 9
f 209 9 10
f 209 10 11
f 209 11 12
f 209 12 13
f 209 13 14
f 209 14 15
f 209 15 16
f 209 16 17
f 209 17 18
f 209 18 19
f 209 19 20
f 209 20 21
f 209 21 22
f 209 22 23
f 209 23 24
f 209 24 25
f 209 25 26
f 209 26 27
f 209 27 28
f 209 28 29
f 209 29 30
f 209 30 31
f 209 31 32
f 209 32 33
f 209 33 34
f 209 34 35
f 209 35 36
f 209 36 37
f 209 37 38
f 209 38 39
f 209 39 40
f 209 40 41
f 209 41 42
f 209 42 43
f 209 43 44
f 209 44 45
f 209 45 46
f 209 46 47
f 209 47 48
f 209 48 49
f 209 49 50
f 209 50 51
f 209 51 52
f 209 52 1
f 158 157 210
f 159 158 210
f 160 159 210
f 161 160 210
f 162 161 210
f 163 162 210
f 164 163 210
f 165 164 210
f 166 165 210
f 167 166 210
f 168 167 210
f 169 168 210
f 170 169 210
f 171 170 210
f 172 171 210
f 173 172 210
f 174 173 210
f 175 174 210
f 176 175 210
f 177 176 210
f 178 177 210
f 179 178 210
f 180 179 210
f 181 180 210
f 182 181 210
f 183 182 210
f 184 183 210
f 185 184 210
f 186 185 210
f 187 186 210
f 188 187 210
f 189 188 210
f 190 189 210
f 191 190 210
f 192 191 210
f 193 192 210
f 194 193 210
f 195 194 210
f 196 195 210
f 197 196 210
f 198 197 210
f 199 198 210
f 200 199 210
f 201 200 210
f 202 201 210
f 203 202 210
f 204 203 210
f 205 204 210
f 206 205 210
f 207 206 210
f 208 207 210
f 157 208 210

